<svg width="27" height="27" viewBox="0 0 27 27" fill="none" xmlns="http://www.w3.org/2000/svg">
<path fill-rule="evenodd" clip-rule="evenodd" d="M11.178 0C7.89116 0 5.22662 2.66454 5.22662 5.95142C5.22662 6.9936 6.07147 7.83845 7.11365 7.83845H12.6064C15.3643 7.83845 17.8761 8.39934 19.5449 10.0681C20.014 10.592 20.3568 11.2165 20.547 11.8935C20.7121 12.4131 20.8288 12.9469 20.8954 13.4879C20.9812 14.205 21.5629 14.7609 22.2831 14.8141C23.5023 14.9011 24.7027 14.4775 25.5973 13.6446C26.4918 12.8117 27 11.6445 27.0001 10.4222V7.30544C27.0001 3.27076 23.7293 0 19.6947 0H11.178ZM12.6062 5.22572H7.91824C8.25875 3.69884 9.61349 2.61293 11.1779 2.6129H19.6945C20.9391 2.6129 22.1326 3.1073 23.0127 3.98734C23.8927 4.86738 24.3871 6.06096 24.3871 7.30552V10.4223C24.3879 11.1404 23.9596 11.7896 23.299 12.0713C23.2328 11.7729 23.1515 11.4431 23.0354 11.0947C22.7195 10.0219 22.1567 9.03801 21.3922 8.22175C18.9931 5.8168 15.6081 5.22572 12.6062 5.22572Z" fill="#15294B"/>
<path fill-rule="evenodd" clip-rule="evenodd" d="M8.7721 5.22562C3.9274 5.22562 0 9.15303 0 13.9977V14.5505C0.000450878 18.6665 3.045 22.1478 7.12428 22.6967L6.77591 24.0681C6.53807 25.0177 6.96324 26.0093 7.81509 26.4917C8.66694 26.9741 9.736 26.8287 10.428 26.1363L13.7957 22.7687H14.7479C19.5529 22.7134 23.4191 18.8025 23.4191 13.9971C23.4191 9.19181 19.5529 5.28091 14.7479 5.22562H8.7721ZM2.61753 13.9976C2.61753 10.5984 5.37306 7.84293 8.77217 7.84293L14.748 7.83828C18.1493 7.83828 20.9067 10.5956 20.9067 13.997C20.9067 17.3983 18.1493 20.1557 14.748 20.1557H13.481C12.9899 20.1562 12.5189 20.3512 12.1712 20.698L9.6942 23.1749L9.90904 22.3156C10.0374 21.7965 9.92017 21.2472 9.59111 20.8257C9.26206 20.4042 8.75764 20.1572 8.2229 20.1557C5.12714 20.1557 2.61753 17.6461 2.61753 14.5503V13.9976Z" fill="#15294B"/>
</svg>
