<svg width="30" height="30" viewBox="0 0 30 30" fill="none" xmlns="http://www.w3.org/2000/svg">
<path d="M23.6464 12.5H10V17.5H16.875H18.4824C18.6496 17.5 18.8057 17.4164 18.8984 17.2773L19.584 16.249C19.7819 15.9522 20.2181 15.9522 20.416 16.249L21.042 17.188C21.1409 17.3364 21.3591 17.3364 21.458 17.188L22.084 16.249C22.2819 15.9522 22.7181 15.9522 22.916 16.249L23.5808 17.2463C23.6684 17.3775 23.8541 17.3959 23.9656 17.2844L26.0732 15.1768C26.1709 15.0791 26.1709 14.9209 26.0732 14.8232L23.8232 12.5732C23.7763 12.5263 23.7128 12.5 23.6464 12.5Z" fill="#7E869E" fill-opacity="0.25"/>
<rect x="12.5" y="13.75" width="7.5" height="1.25" rx="0.625" fill="white"/>
<path fill-rule="evenodd" clip-rule="evenodd" d="M4.33579 10.5858C3.75 11.1716 3.75 12.1144 3.75 14V16C3.75 17.8856 3.75 18.8284 4.33579 19.4142C4.92157 20 5.86438 20 7.75 20H9.75C11.6356 20 12.5784 20 13.1642 19.4142C13.75 18.8284 13.75 17.8856 13.75 16V14C13.75 12.1144 13.75 11.1716 13.1642 10.5858C12.5784 10 11.6356 10 9.75 10H7.75C5.86438 10 4.92157 10 4.33579 10.5858ZM7.25 12.5C6.69772 12.5 6.25 12.9477 6.25 13.5V14C6.25 14.5523 6.69772 15 7.25 15H7.75C8.30228 15 8.75 14.5523 8.75 14V13.5C8.75 12.9477 8.30228 12.5 7.75 12.5H7.25Z" fill="white"/>
</svg>
