<svg width="18" height="18" viewBox="0 0 18 18" fill="none" xmlns="http://www.w3.org/2000/svg">
<path d="M6 1.5L5.55279 1.27639L6 0.381966L6.44721 1.27639L6 1.5ZM6.5 16.5C6.5 16.7761 6.27614 17 6 17C5.72386 17 5.5 16.7761 5.5 16.5L6.5 16.5ZM2.55279 7.27639L5.55279 1.27639L6.44721 1.72361L3.44721 7.72361L2.55279 7.27639ZM6.44721 1.27639L9.44721 7.27639L8.55279 7.72361L5.55279 1.72361L6.44721 1.27639ZM6.5 1.5L6.5 16.5L5.5 16.5L5.5 1.5L6.5 1.5Z" fill="#C4C4C4"/>
<path d="M12 16.5L11.6464 16.8536L12 17.2071L12.3536 16.8536L12 16.5ZM12.5 2.25C12.5 1.97386 12.2761 1.75 12 1.75C11.7239 1.75 11.5 1.97386 11.5 2.25L12.5 2.25ZM8.64645 13.8536L11.6464 16.8536L12.3536 16.1464L9.35355 13.1464L8.64645 13.8536ZM12.3536 16.8536L15.3536 13.8536L14.6464 13.1464L11.6464 16.1464L12.3536 16.8536ZM12.5 16.5L12.5 2.25L11.5 2.25L11.5 16.5L12.5 16.5Z" fill="#C4C4C4"/>
</svg>
