<svg width="24" height="24" viewBox="0 0 24 24" fill="none" xmlns="http://www.w3.org/2000/svg">
<path d="M10 15L10 11" stroke="#7081B9" stroke-width="1.5" stroke-linecap="round"/>
<path d="M14 15L14 11" stroke="#7081B9" stroke-width="1.5" stroke-linecap="round"/>
<path d="M3 7H21V7C20.0681 7 19.6022 7 19.2346 7.15224C18.7446 7.35523 18.3552 7.74458 18.1522 8.23463C18 8.60218 18 9.06812 18 10V16C18 17.8856 18 18.8284 17.4142 19.4142C16.8284 20 15.8856 20 14 20H10C8.11438 20 7.17157 20 6.58579 19.4142C6 18.8284 6 17.8856 6 16V10C6 9.06812 6 8.60218 5.84776 8.23463C5.64477 7.74458 5.25542 7.35523 4.76537 7.15224C4.39782 7 3.93188 7 3 7V7Z" stroke="#7081B9" stroke-width="1.5" stroke-linecap="round"/>
<path d="M10.0852 6.59413C10.2276 5.84992 10.5415 5.1923 10.9781 4.72326C11.4147 4.25423 11.9497 4 12.5 4C13.0503 4 13.5853 4.25423 14.0219 4.72326C14.4585 5.19229 14.7724 5.84992 14.9148 6.59413" stroke="#7081B9" stroke-width="1.5" stroke-linecap="round"/>
</svg>
