<svg width="30" height="30" viewBox="0 0 30 30" fill="none" xmlns="http://www.w3.org/2000/svg">
<path fill-rule="evenodd" clip-rule="evenodd" d="M18.7063 17.8188H19.6938L25.9313 24.0688L24.0688 25.9313L17.8188 19.6938V18.7063L17.4813 18.3563C16.0563 19.5813 14.2063 20.3188 12.1938 20.3188C7.70635 20.3188 4.06885 16.6813 4.06885 12.1938C4.06885 7.70635 7.70635 4.06885 12.1938 4.06885C16.6813 4.06885 20.3188 7.70635 20.3188 12.1938C20.3188 14.2063 19.5813 16.0563 18.3563 17.4813L18.7063 17.8188ZM6.56885 12.1938C6.56885 15.3063 9.08135 17.8188 12.1938 17.8188C15.3063 17.8188 17.8188 15.3063 17.8188 12.1938C17.8188 9.08135 15.3063 6.56885 12.1938 6.56885C9.08135 6.56885 6.56885 9.08135 6.56885 12.1938Z" fill="#FF9933"/>
</svg>
