<svg width="30" height="30" viewBox="0 0 30 30" fill="none" xmlns="http://www.w3.org/2000/svg">
<path d="M3.72503 7.75355C3.72503 5.86624 3.72503 4.92258 4.31134 4.33627C4.89766 3.74995 5.84131 3.74995 7.72863 3.74995H22.0711C23.9584 3.74995 24.902 3.74995 25.4884 4.33627C26.0747 4.92258 26.0747 5.86624 26.0747 7.75355V22.2463C26.0747 24.1336 26.0747 25.0773 25.4884 25.6636C24.902 26.2499 23.9584 26.2499 22.0711 26.2499H7.72863C5.84132 26.2499 4.89766 26.2499 4.31134 25.6636C3.72503 25.0773 3.72503 24.1336 3.72503 22.2463V7.75355Z" stroke="white" stroke-width="2"/>
<path d="M3.72503 8.74993H7.92341C8.90954 8.74993 9.4026 8.74993 9.82645 8.96271C10.2503 9.17549 10.5449 9.57089 11.134 10.3617L12.4575 12.1382C13.0466 12.929 13.3412 13.3244 13.765 13.5371C14.1889 13.7499 14.6819 13.7499 15.6681 13.7499H22.3247C23.9666 13.7499 24.7876 13.7499 25.3407 13.2972C25.4436 13.213 25.5378 13.1188 25.622 13.016C26.0747 12.4629 26.0747 11.6419 26.0747 9.99993V9.99993" stroke="white" stroke-width="2"/>
<path d="M8.69141 19.9999H18.6246" stroke="white" stroke-width="2" stroke-linecap="round"/>
</svg>
