<svg width="50" height="50" viewBox="0 0 50 50" fill="none" xmlns="http://www.w3.org/2000/svg">
<path d="M6.25 25C6.25 14.6447 14.6447 6.25 25 6.25V6.25C35.3553 6.25 43.75 14.6447 43.75 25V25C43.75 35.3553 35.3553 43.75 25 43.75V43.75C14.6447 43.75 6.25 35.3553 6.25 25V25Z" fill="black"/>
<ellipse cx="24.9998" cy="20.8333" rx="8.33333" ry="8.33333" fill="white"/>
<path fill-rule="evenodd" clip-rule="evenodd" d="M38.0654 38.1907C38.1219 38.288 38.1042 38.411 38.0232 38.4892C34.6503 41.7463 30.0591 43.75 25 43.75C19.9409 43.75 15.3498 41.7464 11.9769 38.4893C11.8959 38.4112 11.8783 38.2882 11.9347 38.1909C14.3219 34.0769 19.2758 31.25 25.0001 31.25C30.7243 31.25 35.6782 34.0768 38.0654 38.1907Z" fill="#FF9933"/>
</svg>
