<svg width="210" height="58" viewBox="0 0 210 58" fill="none" xmlns="http://www.w3.org/2000/svg">
<circle cx="28.5518" cy="28.5518" r="28.5518" fill="#FF9933"/>
<circle cx="196.436" cy="27.9809" r="3.42621" stroke="#15294B" stroke-width="2" stroke-linecap="round" stroke-linejoin="round"/>
<path fill-rule="evenodd" clip-rule="evenodd" d="M204.888 31.4069C204.577 32.1117 204.726 32.9348 205.265 33.4855L205.333 33.554C205.911 34.1314 206.136 34.9729 205.925 35.7616C205.714 36.5502 205.098 37.1663 204.309 37.3776C203.52 37.5889 202.679 37.3634 202.101 36.7861L202.033 36.7176C201.487 36.189 200.679 36.0364 199.978 36.3297C199.277 36.6229 198.819 37.3056 198.812 38.0652V38.2594C198.812 39.5209 197.79 40.5435 196.528 40.5435C195.267 40.5435 194.244 39.5209 194.244 38.2594V38.1566C194.226 37.383 193.737 36.6991 193.01 36.432C192.306 36.121 191.483 36.2702 190.932 36.8089L190.863 36.8774C190.286 37.4548 189.444 37.6803 188.656 37.469C187.867 37.2576 187.251 36.6416 187.04 35.8529C186.828 35.0642 187.054 34.2227 187.631 33.6454L187.7 33.5769C188.228 33.0312 188.381 32.2231 188.088 31.5223C187.794 30.8215 187.112 30.3628 186.352 30.3562H186.158C184.897 30.3562 183.874 29.3336 183.874 28.0721C183.874 26.8106 184.897 25.7879 186.158 25.7879H186.261C187.034 25.7698 187.718 25.2807 187.985 24.5545C188.296 23.8497 188.147 23.0266 187.608 22.4759L187.54 22.4074C186.963 21.83 186.737 20.9885 186.948 20.1999C187.16 19.4112 187.776 18.7952 188.564 18.5838C189.353 18.3725 190.195 18.598 190.772 19.1753L190.84 19.2439C191.391 19.7825 192.214 19.9318 192.919 19.6207H193.01C193.701 19.3249 194.15 18.6473 194.153 17.8962V17.7021C194.153 16.4406 195.175 15.4179 196.437 15.4179C197.698 15.4179 198.721 16.4406 198.721 17.7021V17.8049C198.727 18.5645 199.186 19.2471 199.887 19.5404C200.588 19.8336 201.396 19.6811 201.941 19.1525L202.01 19.084C202.587 18.5066 203.429 18.2811 204.217 18.4925C205.006 18.7038 205.622 19.3198 205.834 20.1085C206.045 20.8972 205.819 21.7387 205.242 22.316L205.173 22.3846C204.635 22.9353 204.486 23.7584 204.797 24.4631V24.5545C205.092 25.2448 205.77 25.6936 206.521 25.6966H206.715C207.977 25.6966 208.999 26.7192 208.999 27.9807C208.999 29.2422 207.977 30.2649 206.715 30.2649H206.613C205.861 30.2678 205.184 30.7166 204.888 31.4069Z" stroke="#15294B" stroke-width="2" stroke-linecap="round" stroke-linejoin="round"/>
</svg>
