<svg width="36" height="36" viewBox="0 0 36 36" fill="none" xmlns="http://www.w3.org/2000/svg">
<path fill-rule="evenodd" clip-rule="evenodd" d="M7.91176 15.1895C7.50007 16.0846 7.50007 17.1029 7.50007 19.1396V25.5001C7.50007 28.3286 7.50007 29.7428 8.37875 30.6215C9.20954 31.4523 10.5191 31.4975 13.0501 31.5V24.0002C13.0501 22.5091 14.2589 21.3002 15.7501 21.3002H20.2501C21.7412 21.3002 22.9501 22.5091 22.9501 24.0002V31.5C25.4811 31.4975 26.7906 31.4523 27.6214 30.6215C28.5001 29.7428 28.5001 28.3286 28.5001 25.5001V19.1396C28.5001 17.1029 28.5001 16.0846 28.0884 15.1895C27.6767 14.2944 26.9035 13.6317 25.3572 12.3063L23.8572 11.0205C21.0622 8.62485 19.6647 7.427 18.0001 7.427C16.3354 7.427 14.9379 8.62485 12.1429 11.0205L10.6429 12.3063C9.09661 13.6317 8.32345 14.2944 7.91176 15.1895ZM20.5501 31.5001V24.0002C20.5501 23.8346 20.4157 23.7002 20.2501 23.7002H15.7501C15.5844 23.7002 15.4501 23.8346 15.4501 24.0002V31.5001H20.5501Z" fill="black"/>
</svg>
