<svg width="40" height="40" viewBox="0 0 40 40" fill="none" xmlns="http://www.w3.org/2000/svg">
<path fill-rule="evenodd" clip-rule="evenodd" d="M25.7861 5.27186C24.7258 4.63855 23.5259 4.21801 22.2468 4.06429C21.7112 3.99993 21.1054 3.99996 20.082 4L20 4L19.9179 4C18.8946 3.99996 18.2888 3.99993 17.7532 4.06429C13.9992 4.51542 10.9274 7.26477 10.0645 10.946C9.94141 11.4712 9.87454 12.0733 9.76157 13.0904L9.75251 13.1719L9.33284 16.949C9.19637 18.1772 9.13674 18.6909 9.00664 19.1801C8.92789 19.4763 8.8298 19.7669 8.71297 20.0501C8.51995 20.5182 8.25606 20.9629 7.62026 22.0226L5.95989 24.7899L5.92239 24.8523C5.55178 25.4699 5.21733 26.0271 5.0231 26.4955C4.81959 26.9862 4.65084 27.6565 5.02578 28.3187C5.40072 28.981 6.06235 29.1811 6.58784 29.2591C7.08935 29.3335 7.73926 29.3334 8.45944 29.3333L8.53237 29.3333H31.4676L31.5405 29.3333C32.2607 29.3334 32.9106 29.3335 33.4121 29.2591C33.9376 29.1811 34.5993 28.981 34.9742 28.3187C35.3491 27.6565 35.1804 26.9862 34.9769 26.4955C34.7827 26.0271 34.4482 25.4699 34.0776 24.8524L34.0776 24.8523L34.0401 24.7899L32.3797 22.0226C31.7439 20.9629 31.48 20.5182 31.287 20.0501C31.1702 19.7669 31.0721 19.4763 30.9933 19.1801C30.8632 18.6909 30.8036 18.1772 30.6671 16.949L30.5957 16.3057C30.3996 16.324 30.2009 16.3333 30 16.3333C29.5076 16.3333 29.0284 16.2772 28.5684 16.1709L28.6794 17.1698L28.6886 17.2526C28.8131 18.3739 28.8874 19.0432 29.0605 19.6941C29.1618 20.0748 29.2879 20.4485 29.4381 20.8127C29.6949 21.4353 30.0414 22.0127 30.6218 22.98L30.6218 22.9801L30.6647 23.0516L32.3251 25.8188C32.7454 26.5193 32.9991 26.9474 33.1295 27.2616L33.1362 27.2781L33.1186 27.2808C32.7822 27.3307 32.2845 27.3333 31.4676 27.3333H8.53237C7.71548 27.3333 7.21783 27.3307 6.88135 27.2808L6.86378 27.2781L6.87053 27.2616C7.00084 26.9474 7.25459 26.5193 7.67488 25.8188L9.33524 23.0516L9.37814 22.9801C9.9586 22.0128 10.3051 21.4353 10.5619 20.8127C10.7121 20.4485 10.8382 20.0748 10.9395 19.6941C11.1125 19.0432 11.1869 18.3739 11.3114 17.2527L11.3114 17.2527L11.3206 17.1698L11.7403 13.3928C11.865 12.2704 11.9195 11.796 12.0117 11.4024C12.6829 8.53927 15.072 6.40088 17.9918 6.05001C18.3931 6.00178 18.8707 6 20 6C21.1293 6 21.6068 6.00178 22.0082 6.05001C22.9024 6.15746 23.7468 6.43257 24.5073 6.84481C24.8476 6.2538 25.2804 5.72287 25.7861 5.27186ZM28.1037 7.25822C27.5284 7.65686 27.0847 8.23191 26.8506 8.90513C27.3806 9.63952 27.7729 10.4837 27.9882 11.4024C28.0624 11.7186 28.1121 12.0871 28.1935 12.8019C28.714 13.1381 29.3342 13.3333 30 13.3333C30.0889 13.3333 30.1771 13.3299 30.2643 13.323L30.2475 13.1719L30.2384 13.0904L30.2384 13.0903C30.1254 12.0733 30.0586 11.4712 29.9355 10.946C29.6107 9.56042 28.973 8.30689 28.1037 7.25822ZM33.1966 27.4709C33.1964 27.4708 33.1961 27.4683 33.1959 27.4636C33.1967 27.4687 33.1967 27.471 33.1966 27.4709ZM33.326 27.2338C33.3301 27.2315 33.3325 27.2305 33.3326 27.2306C33.3328 27.2307 33.3308 27.2319 33.326 27.2338ZM6.66734 27.2306C6.66752 27.2306 6.66989 27.2315 6.67395 27.2338C6.66919 27.2318 6.66716 27.2307 6.66734 27.2306ZM6.80406 27.4636C6.80394 27.4683 6.80356 27.4708 6.8034 27.4709C6.80324 27.471 6.80331 27.4687 6.80406 27.4636Z" fill="#FF9933"/>
<path d="M15.1704 29.4411C15.4552 31.0359 16.083 32.4451 16.9562 33.4501C17.8294 34.4552 18.8993 35 20 35C21.1007 35 22.1706 34.4552 23.0438 33.4502C23.917 32.4451 24.5448 31.0359 24.8296 29.4411" stroke="#FF9933" stroke-width="2" stroke-linecap="round"/>
<path d="M30.0001 13.8333C32.1172 13.8333 33.8334 12.1171 33.8334 9.99996C33.8334 7.88287 32.1172 6.16663 30.0001 6.16663C27.883 6.16663 26.1667 7.88287 26.1667 9.99996C26.1667 12.1171 27.883 13.8333 30.0001 13.8333Z" fill="#FF0000" stroke="#FF9933"/>
</svg>
