<svg width="50" height="50" viewBox="0 0 50 50" fill="none" xmlns="http://www.w3.org/2000/svg">
<path d="M6.25 25C6.25 14.6447 14.6447 6.25 25 6.25V6.25C35.3553 6.25 43.75 14.6447 43.75 25V25C43.75 35.3553 35.3553 43.75 25 43.75V43.75C14.6447 43.75 6.25 35.3553 6.25 25V25Z" fill="black"/>
<ellipse cx="25" cy="20.8333" rx="8.33333" ry="8.33333" fill="white"/>
<path fill-rule="evenodd" clip-rule="evenodd" d="M37.9685 38.0266C38.0845 38.2194 38.0491 38.4661 37.8856 38.6208C34.5259 41.8002 29.9907 43.75 25 43.75C20.0095 43.75 15.4743 41.8003 12.1147 38.6211C11.9512 38.4663 11.9157 38.2197 12.0318 38.0268C14.4543 34.002 19.3523 31.25 25.0002 31.25C30.648 31.25 35.5459 34.0018 37.9685 38.0266Z" fill="#FF9933"/>
</svg>
