<svg width="40" height="40" viewBox="0 0 40 40" fill="none" xmlns="http://www.w3.org/2000/svg">
<path d="M5 20C5 11.7157 11.7157 5 20 5V5C28.2843 5 35 11.7157 35 20V20C35 28.2843 28.2843 35 20 35V35C11.7157 35 5 28.2843 5 20V20Z" fill="black"/>
<ellipse cx="20" cy="16.6667" rx="6.66667" ry="6.66667" fill="white"/>
<path fill-rule="evenodd" clip-rule="evenodd" d="M30.4331 30.5196C30.49 30.6167 30.4723 30.7398 30.3911 30.8178C27.6954 33.4079 24.0336 35 20 35C15.9664 35 12.3047 33.4079 9.60897 30.8179C9.52781 30.7399 9.51011 30.6169 9.56699 30.5198C11.484 27.2465 15.436 25 20.0001 25C24.5642 25 28.5161 27.2464 30.4331 30.5196Z" fill="#FF9933"/>
</svg>
