<svg width="60" height="26" viewBox="0 0 60 26" fill="none" xmlns="http://www.w3.org/2000/svg">
<path d="M45.8831 15.8214L45.8831 11.6024" stroke="#7081B9" stroke-width="1.5" stroke-linecap="round"/>
<path d="M49.9165 15.8214L49.9165 11.6024" stroke="#7081B9" stroke-width="1.5" stroke-linecap="round"/>
<path d="M38.8247 7.38339H56.975V7.38339C56.0353 7.38339 55.5655 7.38339 55.1949 7.5369C54.7007 7.74158 54.3081 8.13418 54.1034 8.62833C53.9499 8.99894 53.9499 9.46877 53.9499 10.4084V17.0618C53.9499 18.9632 53.9499 19.9139 53.3592 20.5045C52.7686 21.0952 51.8179 21.0952 49.9165 21.0952H45.8831C43.9818 21.0952 43.0311 21.0952 42.4404 20.5045C41.8497 19.9139 41.8497 18.9632 41.8497 17.0618V10.4084C41.8497 9.46877 41.8497 8.99894 41.6962 8.62833C41.4916 8.13418 41.099 7.74158 40.6048 7.5369C40.2342 7.38339 39.7644 7.38339 38.8247 7.38339V7.38339Z" stroke="#7081B9" stroke-width="1.5" stroke-linecap="round"/>
<path d="M45.969 6.95519C46.1127 6.17022 46.4291 5.47659 46.8694 4.98188C47.3097 4.48716 47.8491 4.21901 48.404 4.21901C48.9589 4.21901 49.4984 4.48716 49.9386 4.98187C50.3789 5.47659 50.6953 6.17022 50.839 6.95519" stroke="#7081B9" stroke-width="1.5" stroke-linecap="round"/>
<path d="M4.67921 20.4106L5.20827 19.8703L4.67921 20.4106C4.97388 20.6991 5.33346 20.6936 5.51549 20.6739C5.67662 20.6563 5.86255 20.6075 6.01424 20.5677C6.02515 20.5649 6.03588 20.5621 6.04641 20.5593L8.71374 19.8618C8.73147 19.8572 8.74932 19.8525 8.76729 19.8479C8.98734 19.7908 9.22399 19.7294 9.43851 19.6032C9.65304 19.477 9.82162 19.2999 9.97837 19.1353C9.99117 19.1218 10.0039 19.1085 10.0166 19.0952L10.0166 19.0952L10.0281 19.0832L10.0281 19.0832L17.3646 11.409L17.3949 11.3773C17.684 11.0749 17.9501 10.7967 18.1375 10.5405C18.3444 10.2578 18.5199 9.91858 18.5199 9.49278C18.5199 9.06699 18.3444 8.72775 18.1375 8.44506C17.9501 8.18891 17.684 7.91063 17.3949 7.60826L17.3646 7.5766L17.1296 7.33074L17.0975 7.29718C16.783 6.96809 16.4957 6.66755 16.2299 6.45604C15.9378 6.2237 15.581 6.02311 15.1252 6.02311C14.6694 6.02311 14.3126 6.2237 14.0206 6.45604C13.7547 6.66754 13.4675 6.96808 13.1529 7.29716C13.1423 7.30832 13.1316 7.31951 13.1208 7.33074L5.88037 14.9045C5.86828 14.9171 5.85608 14.9298 5.8438 14.9426C5.69336 15.0994 5.53164 15.2679 5.41777 15.4769L6.0819 15.8387L5.41777 15.4769C5.30391 15.686 5.25005 15.9132 5.19996 16.1246C5.19587 16.1419 5.19181 16.159 5.18775 16.1761L4.50161 19.0469C4.49908 19.0575 4.4965 19.0683 4.49387 19.0792C4.45729 19.2317 4.41245 19.4187 4.39835 19.5801C4.38241 19.7625 4.38454 20.1221 4.67921 20.4106Z" stroke="#7081B9" stroke-width="1.5"/>
<path d="M12.6043 7.9107L16.6377 12.1297" stroke="#7081B9" stroke-width="1.2"/>
</svg>
