<svg width="29" height="29" viewBox="0 0 29 29" fill="none" xmlns="http://www.w3.org/2000/svg">
<path fill-rule="evenodd" clip-rule="evenodd" d="M3.47855 4.68696C2.41681 5.7487 2.41681 7.45754 2.41681 10.8752V18.1252C2.41681 21.5429 2.41681 23.2518 3.47855 24.3135C4.54029 25.3752 6.24914 25.3752 9.66683 25.3752H19.3335C22.7512 25.3752 24.46 25.3752 25.5218 24.3135C26.5835 23.2518 26.5835 21.5429 26.5835 18.1252V10.8752C26.5835 7.45754 26.5835 5.7487 25.5218 4.68696C24.46 3.62522 22.7512 3.62522 19.3335 3.62522H9.66682C6.24914 3.62522 4.54029 3.62522 3.47855 4.68696ZM19.3335 9.66695C20.0009 9.66695 20.5418 10.2079 20.5418 10.8753V20.542C20.5418 21.2093 20.0009 21.7503 19.3335 21.7503C18.6662 21.7503 18.1252 21.2093 18.1252 20.542V10.8753C18.1252 10.2079 18.6662 9.66695 19.3335 9.66695ZM10.8752 13.292C10.8752 12.6246 10.3342 12.0836 9.66688 12.0836C8.99953 12.0836 8.45854 12.6246 8.45854 13.292L8.45854 20.542C8.45854 21.2093 8.99953 21.7503 9.66688 21.7503C10.3342 21.7503 10.8752 21.2093 10.8752 20.542V13.292ZM15.7085 15.7084C15.7085 15.0411 15.1675 14.5001 14.5001 14.5001C13.8328 14.5001 13.2918 15.0411 13.2918 15.7084V20.5417C13.2918 21.2091 13.8328 21.7501 14.5001 21.7501C15.1675 21.7501 15.7085 21.2091 15.7085 20.5417V15.7084Z" fill="#BCBCBC"/>
</svg>
