<svg width="35" height="35" viewBox="0 0 35 35" fill="none" xmlns="http://www.w3.org/2000/svg">
<path fill-rule="evenodd" clip-rule="evenodd" d="M22.0813 4.55129C20.7972 3.81991 19.3191 3.39679 17.7518 3.37581C17.6915 3.375 17.6237 3.375 17.5092 3.375H17.5H17.4908C17.3763 3.375 17.3085 3.375 17.2482 3.37581C12.7545 3.43598 8.99388 6.80187 8.43783 11.2614C8.43036 11.3213 8.42288 11.3887 8.41022 11.5026L8.40922 11.5116L8.04201 14.8165C7.94719 15.6698 7.90628 16.027 7.83149 16.3705C7.72102 16.8778 7.55445 17.3713 7.33484 17.8418C7.18617 18.1603 7.00227 18.4692 6.56054 19.2054L5.3349 21.2482L5.29738 21.3107C4.92677 21.9282 4.59233 22.4855 4.39811 22.9538C4.19459 23.4445 4.02585 24.1148 4.40079 24.7771C4.77573 25.4393 5.43736 25.6395 5.96285 25.7174C6.46437 25.7918 7.11428 25.7918 7.83448 25.7917H7.8345L7.90738 25.7917H27.0926L27.1655 25.7917H27.1655C27.8857 25.7918 28.5356 25.7918 29.0371 25.7174C29.5626 25.6395 30.2243 25.4393 30.5992 24.7771C30.9741 24.1148 30.8054 23.4445 30.6019 22.9538C30.4077 22.4855 30.0732 21.9282 29.7026 21.3107L29.6651 21.2482L28.4395 19.2054C27.9977 18.4692 27.8138 18.1603 27.6652 17.8418C27.4455 17.3713 27.279 16.8778 27.1685 16.3705C27.0937 16.027 27.0528 15.6699 26.958 14.8165L26.937 14.6272C26.7116 14.6533 26.4824 14.6667 26.25 14.6667C25.7899 14.6667 25.3421 14.6141 24.9122 14.5148L24.9702 15.0374L24.9766 15.0949C25.0632 15.874 25.1148 16.339 25.2143 16.796C25.3563 17.4483 25.5705 18.0828 25.8528 18.6877C26.0506 19.1114 26.2913 19.5125 26.6945 20.1846L26.6946 20.1847L26.7245 20.2344L27.9501 22.2772C28.3704 22.9776 28.6242 23.4058 28.7545 23.72L28.7612 23.7364L28.7436 23.7391C28.4072 23.789 27.9095 23.7917 27.0926 23.7917H7.90738C7.09048 23.7917 6.59283 23.789 6.25636 23.7391L6.23879 23.7364L6.24553 23.72C6.37584 23.4058 6.6296 22.9777 7.04989 22.2772L8.27553 20.2344L8.30533 20.1848C8.70866 19.5126 8.94936 19.1115 9.14716 18.6877C9.42951 18.0828 9.64367 17.4483 9.7857 16.796C9.8852 16.339 9.93684 15.8741 10.0234 15.095L10.0234 15.095L10.0298 15.0374L10.397 11.7325C10.4109 11.6069 10.4169 11.5537 10.4225 11.5089C10.8549 8.04034 13.7798 5.42243 17.2749 5.37563C17.3201 5.37502 17.3736 5.375 17.5 5.375C17.6264 5.375 17.6799 5.37502 17.725 5.37563C18.8719 5.39099 19.9574 5.68319 20.9136 6.19146C21.2079 5.57885 21.6045 5.02474 22.0813 4.55129ZM24.4266 6.4734C23.8579 6.92949 23.4637 7.59429 23.3603 8.35163C23.9245 9.15398 24.3256 10.083 24.5131 11.0934C24.9983 11.4536 25.5993 11.6667 26.25 11.6667C26.3704 11.6667 26.4891 11.6594 26.6056 11.6452L26.5908 11.5116L26.5898 11.5025C26.5771 11.3887 26.5696 11.3213 26.5622 11.2614C26.3338 9.42986 25.5649 7.78277 24.4266 6.4734ZM28.8216 23.9293C28.8214 23.9291 28.8211 23.9266 28.8209 23.922C28.8217 23.9271 28.8217 23.9294 28.8216 23.9293ZM28.9576 23.689C28.9575 23.6889 28.9551 23.6899 28.951 23.6921C28.954 23.6909 28.9559 23.69 28.9569 23.6895C28.9575 23.6892 28.9577 23.689 28.9576 23.689ZM6.04235 23.689C6.04253 23.6889 6.0449 23.6899 6.04895 23.6921C6.04419 23.6902 6.04217 23.689 6.04235 23.689ZM6.17907 23.922C6.17894 23.9266 6.17856 23.9291 6.17841 23.9293C6.17825 23.9294 6.17832 23.927 6.17907 23.922Z" fill="#FF9933"/>
<path d="M13.2741 25.761C13.5233 27.1564 14.0726 28.3894 14.8367 29.2689C15.6007 30.1483 16.5369 30.625 17.5 30.625C18.4631 30.625 19.3993 30.1483 20.1633 29.2689C20.9274 28.3894 21.4767 27.1564 21.7259 25.761" stroke="#FF9933" stroke-width="2" stroke-linecap="round"/>
<path d="M26.25 12.1666C28.137 12.1666 29.6667 10.6369 29.6667 8.74992C29.6667 6.86295 28.137 5.33325 26.25 5.33325C24.363 5.33325 22.8333 6.86295 22.8333 8.74992C22.8333 10.6369 24.363 12.1666 26.25 12.1666Z" fill="#FF0000" stroke="#FF9933"/>
</svg>
