<svg width="100" height="27" viewBox="0 0 100 27" fill="none" xmlns="http://www.w3.org/2000/svg">
<rect x="0.5" y="0.5" width="99" height="26" rx="4.5" stroke="#C4C4C4"/>
<line x1="25.5" x2="25.5" y2="27" stroke="#C4C4C4"/>
<line x1="50.5" x2="50.5" y2="27" stroke="#C4C4C4"/>
<line x1="75.5" x2="75.5" y2="27" stroke="#C4C4C4"/>
<path d="M9 14L8.29289 14.7071L7.58579 14L8.29289 13.2929L9 14ZM13.2929 19.7071L8.29289 14.7071L9.70711 13.2929L14.7071 18.2929L13.2929 19.7071ZM8.29289 13.2929L13.2929 8.29289L14.7071 9.70711L9.70711 14.7071L8.29289 13.2929Z" fill="#7081B9"/>
<path d="M14 14L13.2929 14.7071L12.5858 14L13.2929 13.2929L14 14ZM18.2929 19.7071L13.2929 14.7071L14.7071 13.2929L19.7071 18.2929L18.2929 19.7071ZM13.2929 13.2929L18.2929 8.29289L19.7071 9.70711L14.7071 14.7071L13.2929 13.2929Z" fill="#7081B9"/>
<path d="M92 14L92.7071 14.7071L93.4142 14L92.7071 13.2929L92 14ZM87.7071 19.7071L92.7071 14.7071L91.2929 13.2929L86.2929 18.2929L87.7071 19.7071ZM92.7071 13.2929L87.7071 8.29289L86.2929 9.70711L91.2929 14.7071L92.7071 13.2929Z" fill="#7081B9"/>
<path d="M87 14L87.7071 14.7071L88.4142 14L87.7071 13.2929L87 14ZM82.7071 19.7071L87.7071 14.7071L86.2929 13.2929L81.2929 18.2929L82.7071 19.7071ZM87.7071 13.2929L82.7071 8.29289L81.2929 9.70711L86.2929 14.7071L87.7071 13.2929Z" fill="#7081B9"/>
<path d="M34.5 14L33.7929 13.2929L33.0858 14L33.7929 14.7071L34.5 14ZM38.7929 8.29289L33.7929 13.2929L35.2071 14.7071L40.2071 9.70711L38.7929 8.29289ZM33.7929 14.7071L38.7929 19.7071L40.2071 18.2929L35.2071 13.2929L33.7929 14.7071Z" fill="#7081B9"/>
<path d="M65.5 14L66.2071 13.2929L66.9142 14L66.2071 14.7071L65.5 14ZM61.2071 8.29289L66.2071 13.2929L64.7929 14.7071L59.7929 9.70711L61.2071 8.29289ZM66.2071 14.7071L61.2071 19.7071L59.7929 18.2929L64.7929 13.2929L66.2071 14.7071Z" fill="#7081B9"/>
</svg>
