<svg width="67" height="67" viewBox="0 0 67 67" fill="none" xmlns="http://www.w3.org/2000/svg">
<path d="M55.8334 12.1667C56.3857 12.1667 56.8334 11.719 56.8334 11.1667C56.8334 10.6144 56.3857 10.1667 55.8334 10.1667V12.1667ZM9.04012 12.958L8.20639 12.4058L9.04012 12.958ZM9.04012 23.3337L9.87386 22.7815L9.04012 23.3337ZM10.1664 24.4599L9.61424 25.2937L10.1664 24.4599ZM15.3542 12.1667L55.8334 12.1667V10.1667L15.3542 10.1667V12.1667ZM15.3542 26.125L37.6875 26.125V24.125L15.3542 24.125V26.125ZM9.37506 18.1458C9.37506 16.7306 9.37625 15.744 9.45313 14.9831C9.52834 14.2388 9.66775 13.8214 9.87386 13.5102L8.20639 12.4058C7.74743 13.0988 7.55432 13.8808 7.46326 14.7821C7.37387 15.6668 7.37506 16.772 7.37506 18.1458H9.37506ZM15.3542 10.1667C13.9803 10.1667 12.8752 10.1655 11.9905 10.2549C11.0892 10.3459 10.3072 10.539 9.61424 10.998L10.7186 12.6655C11.0298 12.4594 11.4472 12.3199 12.1915 12.2447C12.9524 12.1679 13.939 12.1667 15.3542 12.1667V10.1667ZM9.87386 13.5102C10.096 13.1748 10.3832 12.8876 10.7186 12.6655L9.61424 10.998C9.05532 11.3682 8.57655 11.8469 8.20639 12.4058L9.87386 13.5102ZM7.37506 18.1458C7.37506 19.5197 7.37387 20.6249 7.46326 21.5096C7.55432 22.4108 7.74743 23.1928 8.20639 23.8858L9.87386 22.7815C9.66775 22.4703 9.52834 22.0529 9.45313 21.3086C9.37625 20.5477 9.37506 19.561 9.37506 18.1458H7.37506ZM15.3542 24.125C13.939 24.125 12.9524 24.1238 12.1915 24.0469C11.4472 23.9717 11.0298 23.8323 10.7186 23.6262L9.61424 25.2937C10.3072 25.7526 11.0892 25.9457 11.9905 26.0368C12.8752 26.1262 13.9803 26.125 15.3542 26.125V24.125ZM8.20639 23.8858C8.57655 24.4447 9.05532 24.9235 9.61424 25.2937L10.7186 23.6262C10.3832 23.4041 10.096 23.1168 9.87386 22.7815L8.20639 23.8858Z" fill="#BCBCBC"/>
<path d="M9.375 33.5V18.1458H7.375L7.375 33.5H9.375Z" fill="#BCBCBC"/>
<path d="M59.125 50.25V49.75H58.625H49.875C47.9752 49.75 46.6007 49.7489 45.5525 49.608C44.5187 49.469 43.8775 49.2023 43.4001 48.7249C42.9227 48.2475 42.656 47.6063 42.517 46.5725C42.3761 45.5243 42.375 44.1498 42.375 42.25V41.5C42.375 39.6002 42.3761 38.2257 42.517 37.1775C42.656 36.1437 42.9227 35.5025 43.4001 35.0251C43.8775 34.5477 44.5187 34.281 45.5525 34.142C46.6007 34.0011 47.9752 34 49.875 34H58.625H59.125V33.5V27.125L59.125 27.0921C59.125 26.6488 59.125 26.2669 59.0839 25.9611C59.0399 25.6333 58.9405 25.3192 58.6857 25.0643C58.4308 24.8095 58.1167 24.7101 57.7889 24.6661C57.4831 24.625 57.1011 24.625 56.6579 24.625H56.625L8.37499 24.625H7.87499V25.125L7.87499 56.625V56.6579C7.87497 57.1011 7.87495 57.4831 7.91607 57.7889C7.96013 58.1167 8.05951 58.4308 8.31433 58.6857C8.56916 58.9405 8.88334 59.0399 9.2111 59.0839C9.51693 59.125 9.89883 59.125 10.3421 59.125L10.375 59.125L56.625 59.125C56.636 59.125 56.647 59.125 56.6579 59.125C57.1012 59.125 57.4831 59.125 57.7889 59.0839C58.1167 59.0399 58.4308 58.9405 58.6857 58.6857C58.9405 58.4308 59.0399 58.1167 59.0839 57.7889C59.125 57.4831 59.125 57.1012 59.125 56.6579C59.125 56.647 59.125 56.636 59.125 56.625V50.25Z" fill="#BCBCBC" stroke="#BCBCBC"/>
</svg>
