<svg width="50" height="50" viewBox="0 0 50 50" fill="none" xmlns="http://www.w3.org/2000/svg">
<path d="M6.25 25C6.25 14.6447 14.6447 6.25 25 6.25V6.25C35.3553 6.25 43.75 14.6447 43.75 25V25C43.75 35.3553 35.3553 43.75 25 43.75V43.75C14.6447 43.75 6.25 35.3553 6.25 25V25Z" fill="black"/>
<ellipse cx="25" cy="20.8333" rx="8.33333" ry="8.33333" fill="white"/>
<path fill-rule="evenodd" clip-rule="evenodd" d="M38.0415 38.1495C38.1126 38.2709 38.0905 38.4248 37.989 38.5222C34.6193 41.7598 30.0421 43.75 25.0001 43.75C19.9581 43.75 15.381 41.7599 12.0113 38.5224C11.9099 38.4249 11.8877 38.2711 11.9588 38.1497C14.355 34.0581 19.295 31.25 25.0002 31.25C30.7053 31.25 35.6452 34.058 38.0415 38.1495Z" fill="#FF9933"/>
</svg>
