<svg width="36" height="36" viewBox="0 0 36 36" fill="none" xmlns="http://www.w3.org/2000/svg">
<path fill-rule="evenodd" clip-rule="evenodd" d="M3.00122 15.3001H32.9988C32.9871 11.8449 32.8694 10.0055 31.682 8.81812C30.364 7.50009 28.2427 7.50009 24 7.50009H12C7.75731 7.50009 5.63599 7.50009 4.31796 8.81812C3.13054 10.0055 3.01288 11.8449 3.00122 15.3001ZM33 17.7001H2.99999C2.99997 17.7001 2.99996 17.7001 2.99994 17.7001V21.0001C2.99994 25.2428 2.99994 27.3641 4.31796 28.6821C5.63598 30.0002 7.75731 30.0002 12 30.0002H12H24H24C28.2427 30.0002 30.364 30.0002 31.682 28.6821C33 27.3641 33 25.2428 33 21.0001V17.7001ZM10.5 22.8001C9.83727 22.8001 9.30001 23.3374 9.30001 24.0001C9.30001 24.6629 9.83727 25.2001 10.5 25.2001H10.515C11.1778 25.2001 11.715 24.6629 11.715 24.0001C11.715 23.3374 11.1778 22.8001 10.515 22.8001H10.5Z" fill="#BCBCBC"/>
</svg>
