<svg width="36" height="36" viewBox="0 0 36 36" fill="none" xmlns="http://www.w3.org/2000/svg">
<path d="M29.9999 7.00749C30.5564 7.00749 31.0075 6.55639 31.0075 5.99993C31.0075 5.44348 30.5564 4.99238 29.9999 4.99238V7.00749ZM8.24992 7.00749L29.9999 7.00749V4.99238L8.24992 4.99238V7.00749ZM8.24992 14.5075L20.2499 14.5075V12.4924L8.24992 12.4924V14.5075ZM5.50747 9.74994C5.50747 8.23533 6.73531 7.00749 8.24992 7.00749V4.99238C5.62239 4.99238 3.49236 7.12241 3.49236 9.74994H5.50747ZM3.49236 9.74994C3.49236 12.3775 5.62239 14.5075 8.24992 14.5075V12.4924C6.73531 12.4924 5.50747 11.2645 5.50747 9.74994H3.49236Z" fill="#BCBCBC"/>
<path d="M5.50762 18L5.50762 9.75H3.4925L3.4925 18H5.50762Z" fill="#BCBCBC"/>
<path d="M32.0037 26.4962V26.9999V29.4848C32.0037 29.4959 32.0037 29.507 32.0037 29.518C32.0037 29.9646 32.0038 30.3494 31.9623 30.6575C31.9179 30.9878 31.8178 31.3043 31.5611 31.5611L32.0037 26.4962ZM32.0037 26.4962H31.4999M32.0037 26.4962H31.4999M31.4999 26.4962L26.9999 26.4962C26.5525 26.4962 26.3628 26.4956 26.2078 26.4814C24.5149 26.326 23.1739 24.985 23.0185 23.2921C23.0042 23.137 23.0037 22.9474 23.0037 22.4999C23.0037 22.0525 23.0042 21.8628 23.0185 21.7078C23.1739 20.0149 24.5149 18.6739 26.2078 18.5185C26.3628 18.5042 26.5525 18.5037 26.9999 18.5037H31.4999H32.0037M31.4999 26.4962L32.0037 18.5037M32.0037 18.5037V17.9999M32.0037 18.5037V17.9999M32.0037 17.9999V15.515L32.0037 15.4819C32.0037 15.0353 32.0038 14.6505 31.9623 14.3424C31.9179 14.0121 31.8178 13.6956 31.5611 13.4388L31.5611 13.4388C31.3043 13.1821 30.9878 13.0819 30.6575 13.0375C30.3494 12.9961 29.9646 12.9961 29.518 12.9962H29.4848L4.49992 12.9962H3.99614M32.0037 17.9999L3.99614 12.9962M3.99614 12.9962V13.4999V12.9962ZM29.4848 32.0037H6.51503L6.48187 32.0037C6.03528 32.0037 5.65048 32.0038 5.34234 31.9623C5.01211 31.9179 4.69556 31.8178 4.4388 31.5611L29.4848 32.0037ZM29.4848 32.0037C29.4959 32.0037 29.507 32.0037 29.518 32.0037M29.4848 32.0037L29.518 32.0037M29.518 32.0037C29.9646 32.0037 30.3494 32.0038 30.6575 31.9623M29.518 32.0037L30.6575 31.9623M30.6575 31.9623C30.9877 31.9179 31.3043 31.8178 31.5611 31.5611L30.6575 31.9623Z" fill="#BCBCBC" stroke="#BCBCBC"/>
</svg>
