<svg width="50" height="50" viewBox="0 0 50 50" fill="none" xmlns="http://www.w3.org/2000/svg">
<path d="M6.25 25C6.25 14.6447 14.6447 6.25 25 6.25V6.25C35.3553 6.25 43.75 14.6447 43.75 25V25C43.75 35.3553 35.3553 43.75 25 43.75V43.75C14.6447 43.75 6.25 35.3553 6.25 25V25Z" fill="black"/>
<ellipse cx="24.9998" cy="20.8333" rx="8.33333" ry="8.33333" fill="white"/>
<path fill-rule="evenodd" clip-rule="evenodd" d="M37.9686 38.0265C38.0847 38.2193 38.0492 38.466 37.8857 38.6207C34.526 41.8002 29.9908 43.75 25.0001 43.75C20.0096 43.75 15.4744 41.8003 12.1148 38.6211C11.9513 38.4664 11.9158 38.2197 12.0319 38.0269C14.4545 34.002 19.3525 31.25 25.0004 31.25C30.6481 31.25 35.546 34.0018 37.9686 38.0265Z" fill="#FF9933"/>
</svg>
