<svg width="28" height="28" viewBox="0 0 28 28" fill="none" xmlns="http://www.w3.org/2000/svg">
<path fill-rule="evenodd" clip-rule="evenodd" d="M22.7233 17.5365C22.4023 18.2639 22.5563 19.1135 23.1123 19.6819L23.1831 19.7527C23.779 20.3486 24.0117 21.2172 23.7936 22.0313C23.5755 22.8453 22.9396 23.4812 22.1256 23.6993C21.3115 23.9174 20.4429 23.6847 19.847 23.0888L19.7762 23.018C19.213 22.4724 18.3789 22.315 17.6555 22.6177C16.9322 22.9203 16.4588 23.6249 16.4519 24.409V24.6094C16.4519 25.9115 15.3964 26.9671 14.0943 26.9671C12.7922 26.9671 11.7366 25.9115 11.7366 24.6094V24.5033C11.7179 23.7049 11.2131 22.999 10.4635 22.7233C9.73604 22.4023 8.88643 22.5563 8.31802 23.1123L8.24729 23.1831C7.65135 23.779 6.78276 24.0117 5.9687 23.7936C5.15464 23.5755 4.51878 22.9396 4.30066 22.1256C4.08253 21.3115 4.31527 20.4429 4.9112 19.847L4.98193 19.7762C5.52751 19.213 5.68498 18.3789 5.3823 17.6555C5.07962 16.9322 4.37501 16.4588 3.59091 16.4519H3.39051C2.08841 16.4519 1.03285 15.3964 1.03285 14.0943C1.03285 12.7922 2.08841 11.7366 3.39051 11.7366H3.49661C4.29506 11.7179 5.00095 11.2131 5.27664 10.4635C5.59769 9.73604 5.44364 8.88643 4.88763 8.31802L4.8169 8.24729C4.22096 7.65135 3.98822 6.78276 4.20635 5.9687C4.42448 5.15464 5.06033 4.51878 5.87439 4.30066C6.68846 4.08253 7.55705 4.31527 8.15298 4.9112L8.22371 4.98193C8.79213 5.53795 9.64174 5.692 10.3692 5.37095H10.4635C11.1761 5.06555 11.6392 4.36616 11.6423 3.59091V3.39051C11.6423 2.08841 12.6979 1.03285 14 1.03285C15.3021 1.03285 16.3576 2.08841 16.3576 3.39051V3.49661C16.3645 4.28071 16.8379 4.98531 17.5612 5.28799C18.2846 5.59068 19.1187 5.4332 19.6819 4.88763L19.7527 4.8169C20.3486 4.22096 21.2172 3.98822 22.0313 4.20635C22.8453 4.42448 23.4812 5.06033 23.6993 5.87439C23.9174 6.68846 23.6847 7.55705 23.0888 8.15298L23.018 8.22371C22.462 8.79213 22.308 9.64174 22.629 10.3692V10.4635C22.9344 11.1761 23.6338 11.6392 24.409 11.6423H24.6094C25.9115 11.6423 26.9671 12.6979 26.9671 14C26.9671 15.3021 25.9115 16.3576 24.6094 16.3576H24.5033C23.7281 16.3607 23.0287 16.8239 22.7233 17.5365Z" stroke="#15294B" stroke-width="2" stroke-linecap="round" stroke-linejoin="round"/>
</svg>
