<svg width="27" height="26" viewBox="0 0 27 26" fill="none" xmlns="http://www.w3.org/2000/svg">
<path fill-rule="evenodd" clip-rule="evenodd" d="M4.75718 6.10634C2.12986 6.10634 0 8.23621 0 10.8635V21.2428C0 23.8701 2.12986 26 4.75718 26H22.056C24.6833 26 26.8132 23.8701 26.8132 21.2428V10.8635C26.8132 8.23621 24.6833 6.10634 22.056 6.10634H4.75718ZM2.59467 10.8636C2.59467 9.66937 3.56279 8.70125 4.75702 8.70125H22.0559C23.2501 8.70125 24.2182 9.66937 24.2182 10.8636V21.2429C24.2182 22.4371 23.2501 23.4053 22.0559 23.4053H4.75702C3.56279 23.4053 2.59467 22.4371 2.59467 21.2429V10.8636Z" fill="#15294B"/>
<path fill-rule="evenodd" clip-rule="evenodd" d="M21.9899 0.579158C21.1349 -0.0197666 20.0416 -0.164059 19.0605 0.192557L3.50769 5.84812C2.83583 6.0911 2.43585 6.78186 2.55957 7.48551C2.6833 8.18916 3.29491 8.70206 4.00936 8.70128H21.8837C22.6958 8.70128 23.3541 8.04296 23.3541 7.23088V3.20025C23.3541 2.15636 22.8449 1.17808 21.9899 0.579158ZM20.5021 2.70755C20.6625 2.82049 20.7582 3.00413 20.7589 3.20028V6.10995H10.3923L19.9516 2.63173C20.1366 2.56634 20.3417 2.5946 20.5021 2.70755Z" fill="#15294B"/>
<path d="M0.865269 13.4583C0.865269 12.7418 1.44614 12.1609 2.16268 12.1609H24.6512C25.3677 12.1609 25.9486 12.7418 25.9486 13.4583C25.9486 14.1748 25.3677 14.7557 24.6512 14.7557H2.16268C1.44614 14.7557 0.865269 14.1748 0.865269 13.4583Z" fill="#15294B"/>
<path d="M3.45984 19.5128C3.45984 18.7963 4.04071 18.2154 4.75725 18.2154H11.6768C12.3933 18.2154 12.9742 18.7963 12.9742 19.5128C12.9742 20.2294 12.3933 20.8102 11.6768 20.8102H4.75725C4.04071 20.8102 3.45984 20.2294 3.45984 19.5128Z" fill="#15294B"/>
</svg>
