<svg width="30" height="30" viewBox="0 0 30 30" fill="none" xmlns="http://www.w3.org/2000/svg">
<path fill-rule="evenodd" clip-rule="evenodd" d="M18.7062 17.8188H19.6937L25.9312 24.0688L24.0687 25.9313L17.8187 19.6938V18.7063L17.4812 18.3563C16.0562 19.5813 14.2062 20.3188 12.1937 20.3188C7.70623 20.3188 4.06873 16.6813 4.06873 12.1938C4.06873 7.70635 7.70623 4.06885 12.1937 4.06885C16.6812 4.06885 20.3187 7.70635 20.3187 12.1938C20.3187 14.2063 19.5812 16.0563 18.3562 17.4813L18.7062 17.8188ZM6.56873 12.1938C6.56873 15.3063 9.08123 17.8188 12.1937 17.8188C15.3062 17.8188 17.8187 15.3063 17.8187 12.1938C17.8187 9.08135 15.3062 6.56885 12.1937 6.56885C9.08123 6.56885 6.56873 9.08135 6.56873 12.1938Z" fill="#FF9933"/>
</svg>
