<svg width="27" height="27" viewBox="0 0 27 27" fill="none" xmlns="http://www.w3.org/2000/svg">
<path fill-rule="evenodd" clip-rule="evenodd" d="M11.1781 0C7.89121 0 5.22669 2.66452 5.22669 5.95136C5.22669 6.99353 6.07154 7.83838 7.11371 7.83838H12.6064C15.3643 7.83838 17.8761 8.39926 19.5448 10.068C20.0139 10.5919 20.3568 11.2164 20.547 11.8934C20.7121 12.413 20.8287 12.9467 20.8953 13.4878C20.9811 14.2049 21.5628 14.7607 22.283 14.814C23.5022 14.901 24.7026 14.4774 25.5972 13.6445C26.4917 12.8116 26.9999 11.6444 27 10.4221V7.30537C27 3.27073 23.7292 0 19.6946 0H11.1781ZM12.6062 5.22567H7.91829C8.2588 3.69881 9.61353 2.6129 11.1779 2.61288H19.6944C20.939 2.61288 22.1326 3.10727 23.0126 3.9873C23.8926 4.86733 24.387 6.06091 24.387 7.30545V10.4222C24.3878 11.1403 23.9595 11.7894 23.2989 12.0712C23.2327 11.7728 23.1515 11.443 23.0353 11.0946C22.7194 10.0218 22.1566 9.03793 21.3922 8.22167C18.9931 5.81674 15.608 5.22567 12.6062 5.22567Z" fill="#15294B"/>
<path fill-rule="evenodd" clip-rule="evenodd" d="M8.77202 5.22557C3.92737 5.22557 0 9.15294 0 13.9976V14.5503C0.000450874 18.6664 3.04497 22.1476 7.12422 22.6965L6.77585 24.0679C6.53801 25.0175 6.96318 26.0091 7.81502 26.4915C8.66686 26.9739 9.73591 26.8285 10.4279 26.1361L13.7956 22.7685H14.7478C19.5527 22.7132 23.4189 18.8023 23.4189 13.997C23.4189 9.19173 19.5527 5.28086 14.7478 5.22557H8.77202ZM2.61751 13.9974C2.61751 10.5984 5.37301 7.84285 8.77209 7.84285L14.7478 7.83821C18.1492 7.83821 20.9065 10.5955 20.9065 13.9969C20.9065 17.3982 18.1492 20.1555 14.7478 20.1555H13.4809C12.9898 20.156 12.5188 20.351 12.171 20.6978L9.69411 23.1747L9.90894 22.3154C10.0373 21.7963 9.92007 21.247 9.59103 20.8255C9.26198 20.404 8.75755 20.157 8.22282 20.1555C5.12709 20.1555 2.61751 17.6459 2.61751 14.5502V13.9974Z" fill="#15294B"/>
</svg>
