<svg width="31" height="30" viewBox="0 0 31 30" fill="none" xmlns="http://www.w3.org/2000/svg">
<path fill-rule="evenodd" clip-rule="evenodd" d="M18.6602 3.6152C17.5691 3.06076 16.3369 2.75 15.0387 2.75C10.9617 2.75 7.53636 5.81495 7.08498 9.86691L6.77165 12.6797C6.71824 13.1591 6.69549 13.3598 6.66224 13.5544C6.53857 14.2782 6.3018 14.978 5.96061 15.6282C5.86887 15.803 5.76506 15.9763 5.51641 16.3897L4.72602 17.7036L4.68843 17.7661C4.31666 18.3839 3.98123 18.9414 3.7863 19.4099C3.5821 19.9007 3.41237 20.5714 3.78724 21.2344C4.16211 21.8974 4.82438 22.0977 5.35019 22.1757C5.85214 22.2502 6.50273 22.2501 7.2238 22.25H7.22382L7.29674 22.25H22.7807L22.8536 22.25H22.8537C23.5747 22.2501 24.2253 22.2502 24.7273 22.1757C25.2531 22.0977 25.9154 21.8974 26.2902 21.2344C26.6651 20.5714 26.4954 19.9007 26.2912 19.4099C26.0962 18.9414 25.7608 18.3839 25.389 17.7661L25.3514 17.7036L24.5611 16.3897C24.3124 15.9763 24.2086 15.803 24.1169 15.6282C23.7757 14.978 23.5389 14.2782 23.4152 13.5544C23.3889 13.4004 23.3692 13.2425 23.3356 12.9455C23.0815 12.9814 22.8219 13 22.5581 13C22.1303 13 21.7136 12.9512 21.3134 12.8587L21.3181 12.9011L21.3217 12.9336C21.3705 13.3712 21.3996 13.6324 21.4438 13.8913C21.6028 14.8218 21.9072 15.7216 22.3459 16.5575C22.4679 16.7901 22.6034 17.0153 22.8304 17.3927L22.8305 17.3927L22.8472 17.4206L23.6376 18.7345C24.0592 19.4353 24.3138 19.8637 24.4446 20.1782L24.4514 20.1947L24.4338 20.1974C24.0969 20.2473 23.5985 20.25 22.7807 20.25H7.29674C6.47893 20.25 5.9806 20.2473 5.64367 20.1974L5.62606 20.1947L5.63284 20.1782C5.76368 19.8637 6.01828 19.4353 6.43983 18.7345L7.23022 17.4206L7.247 17.3927L7.24702 17.3927C7.47406 17.0153 7.60953 16.7901 7.73157 16.5575C8.17024 15.7216 8.47466 14.8218 8.63366 13.8913C8.6779 13.6324 8.70699 13.3712 8.75574 12.9335L8.75575 12.9335L8.75935 12.9011L9.07269 10.0883C9.41127 7.049 11.9806 4.75 15.0387 4.75C15.919 4.75 16.7588 4.94048 17.5165 5.28426C17.7929 4.65769 18.1829 4.09277 18.6602 3.6152ZM21.0678 5.48972C20.4638 5.93592 20.0679 6.6465 20.0521 7.45C20.4294 8.02177 20.7121 8.66349 20.8769 9.35425C21.3216 9.75557 21.9112 10 22.5581 10C22.7099 10 22.8586 9.98654 23.0029 9.96075L22.9925 9.86691C22.8056 8.18958 22.1092 6.68138 21.0678 5.48972ZM24.5114 20.3805C24.5116 20.3851 24.5119 20.3877 24.5121 20.3878C24.5122 20.3878 24.5122 20.3873 24.5121 20.386C24.512 20.3848 24.5118 20.383 24.5114 20.3805ZM24.6464 20.1478C24.6453 20.1483 24.6436 20.1492 24.6415 20.1503C24.6463 20.1483 24.6484 20.1472 24.6482 20.1471C24.6481 20.1471 24.6475 20.1473 24.6464 20.1478ZM5.42929 20.1471C5.42947 20.1471 5.43185 20.148 5.43591 20.1503C5.43114 20.1484 5.42911 20.1472 5.42929 20.1471ZM5.56604 20.3805C5.5659 20.3851 5.56552 20.3877 5.56536 20.3878C5.5652 20.3879 5.56528 20.3856 5.56604 20.3805Z" fill="#FF9933"/>
<path d="M11.4072 22.0809C11.6214 23.2769 12.0934 24.3338 12.75 25.0876C13.4066 25.8414 14.2111 26.25 15.0388 26.25C15.8664 26.25 16.6709 25.8414 17.3275 25.0876C17.9841 24.3338 18.4561 23.2769 18.6704 22.0809" stroke="#FF9933" stroke-width="2" stroke-linecap="round"/>
<path d="M22.5581 10.5C24.2173 10.5 25.5646 9.15807 25.5646 7.5C25.5646 5.84193 24.2173 4.5 22.5581 4.5C20.8989 4.5 19.5516 5.84193 19.5516 7.5C19.5516 9.15807 20.8989 10.5 22.5581 10.5Z" fill="#FF0000" stroke="#FF9933"/>
</svg>
