<svg width="36" height="36" viewBox="0 0 36 36" fill="none" xmlns="http://www.w3.org/2000/svg">
<path fill-rule="evenodd" clip-rule="evenodd" d="M3.00121 15.3001H32.9986C32.987 11.8449 32.8693 10.0055 31.6819 8.81809C30.3639 7.50007 28.2426 7.50007 23.9999 7.50007H11.9999C7.75729 7.50007 5.63597 7.50007 4.31795 8.81809C3.13053 10.0055 3.01287 11.8449 3.00121 15.3001ZM32.9999 17.7001H2.99998C2.99996 17.7001 2.99995 17.7001 2.99993 17.7001V21.0001C2.99993 25.2427 2.99993 27.364 4.31795 28.682C5.63596 30.0001 7.75728 30.0001 11.9999 30.0001H11.9999H23.9999H23.9999C28.2426 30.0001 30.3639 30.0001 31.6819 28.682C32.9999 27.364 32.9999 25.2427 32.9999 21.0001V17.7001ZM10.5 22.8001C9.83724 22.8001 9.29998 23.3373 9.29998 24.0001C9.29998 24.6628 9.83724 25.2001 10.5 25.2001H10.515C11.1777 25.2001 11.715 24.6628 11.715 24.0001C11.715 23.3373 11.1777 22.8001 10.515 22.8001H10.5Z" fill="#BCBCBC"/>
</svg>
