<svg width="21" height="15" viewBox="0 0 21 15" fill="none" xmlns="http://www.w3.org/2000/svg">
<g clip-path="url(#clip0_345_670)">
<path d="M0 0H21V14.4365H0V0Z" fill="black"/>
<path d="M0 2.40649H21V6.01563H0V2.40649ZM0 9.62476H21V14.4369H0V9.62476Z" fill="#FCDC04"/>
<path d="M0 4.81323H21V7.21932H0V4.81323ZM0 12.0315H21V14.4376H0V12.0315Z" fill="#D90000"/>
<path d="M10.4989 9.46911C11.7037 9.46911 12.6804 8.46189 12.6804 7.21942C12.6804 5.97695 11.7037 4.96973 10.4989 4.96973C9.29408 4.96973 8.31738 5.97695 8.31738 7.21942C8.31738 8.46189 9.29408 9.46911 10.4989 9.46911Z" fill="white"/>
<path d="M10.1148 5.49484L9.97327 5.22606C10.0279 5.16975 10.1197 5.12622 10.2662 5.12622C10.2662 5.13646 10.2513 5.42061 10.2513 5.42061L10.1148 5.49484Z" fill="#D90000"/>
<path fill-rule="evenodd" clip-rule="evenodd" d="M9.98788 5.22769L10.1196 5.47797L10.2401 5.41247L10.2421 5.37472C10.2435 5.34793 10.2453 5.3121 10.2472 5.27594C10.2491 5.23979 10.2509 5.20332 10.2523 5.17526C10.253 5.16122 10.2536 5.1493 10.254 5.14057C10.254 5.13956 10.2541 5.1386 10.2541 5.13769C10.1226 5.13993 10.039 5.1786 9.98788 5.22769ZM10.2514 5.41993C10.263 5.42057 10.263 5.42057 10.263 5.42057L10.2654 5.37602C10.2668 5.34922 10.2686 5.31338 10.2705 5.27722C10.2742 5.20527 10.278 5.1311 10.278 5.12556V5.11353H10.2663C10.1176 5.11353 10.0224 5.15778 9.96514 5.21688L9.95898 5.22323L10.1101 5.51034L10.2627 5.42739L10.263 5.42057L10.2514 5.41993Z" fill="black"/>
<path d="M10.2511 5.42357L10.271 5.12664C10.271 5.12664 10.5639 5.10874 10.7227 5.30582C10.7252 5.30326 10.5663 5.53618 10.5663 5.53618L10.2511 5.42357Z" fill="#FCDC04"/>
<path fill-rule="evenodd" clip-rule="evenodd" d="M10.2819 5.13766L10.2634 5.41455L10.5619 5.52118L10.5816 5.49225C10.5965 5.47045 10.6163 5.44142 10.636 5.41247C10.6557 5.38351 10.6753 5.35465 10.6898 5.33318C10.6971 5.32245 10.7031 5.31358 10.7072 5.30748C10.7075 5.30697 10.7078 5.30648 10.7081 5.30601C10.6314 5.21514 10.5245 5.17284 10.4349 5.15344C10.3891 5.14352 10.3482 5.13966 10.3187 5.13828C10.304 5.13759 10.2922 5.13752 10.284 5.13762C10.2833 5.13763 10.2826 5.13764 10.2819 5.13766ZM10.5664 5.53552L10.5759 5.54244L10.5709 5.54985L10.2389 5.43126L10.2601 5.1146L10.2703 5.11397L10.271 5.12598C10.2703 5.11397 10.2703 5.11397 10.2703 5.11397L10.2703 5.11397L10.2704 5.11396L10.2706 5.11395L10.2713 5.11392C10.2719 5.11389 10.2728 5.11385 10.2739 5.1138C10.2762 5.11372 10.2795 5.11362 10.2838 5.11357C10.2923 5.11346 10.3046 5.11353 10.3198 5.11424C10.3502 5.11567 10.3924 5.11965 10.4397 5.12989C10.5341 5.15033 10.6499 5.19599 10.7317 5.29747L10.7309 5.29815C10.7329 5.30079 10.7343 5.30374 10.7345 5.30535C10.7344 5.30655 10.734 5.30832 10.7339 5.30892C10.7337 5.30927 10.7335 5.30984 10.7334 5.31007C10.7332 5.31051 10.7331 5.31084 10.733 5.31097C10.7327 5.31147 10.7324 5.31194 10.7323 5.31209C10.732 5.31259 10.7316 5.31327 10.7311 5.31406C10.73 5.31568 10.7284 5.31809 10.7263 5.32116C10.7222 5.32731 10.7162 5.33622 10.7089 5.34696C10.6944 5.36845 10.6748 5.39733 10.6551 5.42629C10.6353 5.45525 10.6156 5.48428 10.6007 5.50608L10.5759 5.54244C10.5759 5.54244 10.5759 5.54244 10.5664 5.53552Z" fill="black"/>
<path d="M10.571 5.53214L10.715 5.30176C10.8118 5.40672 10.8515 5.48095 10.8664 5.59359C10.8689 5.59615 10.6381 5.65246 10.6381 5.6499C10.6381 5.64733 10.5735 5.5347 10.571 5.53214Z" fill="#D90000"/>
<path fill-rule="evenodd" clip-rule="evenodd" d="M10.7137 5.28271L10.724 5.2938C10.8217 5.39981 10.863 5.47618 10.8784 5.59172C10.8788 5.5941 10.8785 5.59624 10.878 5.59789C10.8769 5.60094 10.875 5.60267 10.8745 5.60313C10.8732 5.60429 10.8719 5.60494 10.8716 5.60511L10.8716 5.60512C10.8705 5.60563 10.8694 5.60605 10.8686 5.60636C10.8667 5.60702 10.8641 5.60783 10.861 5.60873C10.8548 5.61056 10.8458 5.61299 10.8352 5.61579C10.8138 5.62142 10.7851 5.62863 10.7564 5.63568C10.7276 5.64272 10.6988 5.64962 10.6771 5.65459C10.6663 5.65708 10.6572 5.6591 10.6508 5.66042C10.6476 5.66108 10.6449 5.6616 10.643 5.66191C10.642 5.66206 10.641 5.66221 10.64 5.66228C10.6397 5.6623 10.6387 5.66237 10.6375 5.66225C10.6371 5.6622 10.6356 5.66204 10.6338 5.66124C10.6327 5.66069 10.6289 5.65856 10.6274 5.65394C10.6274 5.65393 10.6274 5.65392 10.6274 5.65391C10.627 5.65313 10.6264 5.65193 10.6256 5.6503C10.6238 5.64707 10.6213 5.64253 10.6183 5.63707C10.6123 5.62617 10.6041 5.61181 10.5959 5.59743C10.5877 5.58306 10.5794 5.56869 10.5731 5.55778C10.5699 5.55231 10.5672 5.54775 10.5652 5.54448C10.5642 5.54284 10.5635 5.54159 10.5629 5.54073C10.5628 5.54056 10.5627 5.54042 10.5627 5.5403L10.5566 5.5341L10.7137 5.28271ZM10.7172 5.32154L10.5854 5.53244C10.5874 5.53577 10.59 5.54021 10.5931 5.54537C10.5995 5.55637 10.6078 5.5708 10.616 5.58523C10.6243 5.59964 10.6324 5.61409 10.6386 5.62511C10.6411 5.62975 10.6434 5.63383 10.6451 5.63705C10.6455 5.63698 10.6458 5.6369 10.6462 5.63683C10.6524 5.63556 10.6613 5.63358 10.6721 5.6311C10.6936 5.62616 10.7223 5.6193 10.751 5.61227C10.7796 5.60524 10.8082 5.59806 10.8294 5.59248C10.8396 5.58979 10.8481 5.58749 10.854 5.58577C10.8391 5.48565 10.8027 5.41632 10.7172 5.32154ZM10.6493 5.64552C10.6494 5.6457 10.6495 5.64589 10.6495 5.64609C10.6496 5.6462 10.6502 5.64798 10.6502 5.65021C10.6502 5.64839 10.6499 5.64684 10.6493 5.64552Z" fill="black"/>
<path d="M10.1868 9.33674C10.1868 9.33674 10.4573 9.01676 10.9835 9.08589C10.9041 8.95278 10.6485 8.96814 10.6485 8.96814C10.6485 8.96814 10.569 8.34614 10.6311 8.31541C10.6931 8.28469 10.9562 8.31797 10.9562 8.31797C10.991 8.31797 11.0506 8.2207 11.0034 8.15928C10.9562 8.09783 10.8172 7.86235 10.8743 7.81626C10.9314 7.7702 11.2417 7.84187 11.2417 7.84187L10.5021 6.86526L10.3655 6.68489C10.3655 6.68489 10.2761 6.24975 10.4549 6.03985C10.5819 5.93144 10.6265 5.81772 10.6401 5.74296C10.6497 5.69063 10.6441 5.6574 10.641 5.65845C10.6112 5.45623 10.3134 5.31032 10.1123 5.49719C9.99317 5.64565 10.0726 5.75828 10.0726 5.75828C10.0726 5.75828 9.75986 5.84531 9.74744 5.90161C9.73503 5.95794 10.0999 5.89139 10.0999 5.89139L10.0652 6.14992C10.0652 6.14992 9.35526 6.81543 9.89885 7.39136C9.90301 7.38921 9.91242 7.37265 9.91534 7.36737C9.91591 7.36636 9.91623 7.36576 9.91623 7.36576C9.91623 7.36576 9.91805 7.36808 9.92154 7.37233C9.95127 7.40855 10.1017 7.58454 10.2675 7.64921C10.2811 7.65449 10.2947 7.65903 10.3084 7.66269C10.3398 7.69588 10.3654 7.72271 10.3864 7.74437C10.3885 7.74654 10.3906 7.74867 10.3926 7.75074C10.4373 7.7967 10.4594 7.81761 10.4702 7.82674C10.4831 7.83776 10.4797 7.83163 10.4797 7.83163C10.4797 7.83163 10.5169 8.14648 10.4822 8.2079C10.4675 8.20313 10.411 8.19812 10.3378 8.19431C10.2412 8.18928 10.1156 8.18637 10.0192 8.18892C9.95362 8.19066 9.90158 8.19492 9.88147 8.20278C9.81694 8.22326 9.56873 8.21046 9.63078 8.6277C9.67793 8.51507 9.72014 8.41524 9.72014 8.41524C9.72014 8.41524 9.71269 8.56626 9.77227 8.62002C9.76649 8.52764 9.78678 8.45261 9.80475 8.40603C9.81765 8.37259 9.82935 8.35382 9.82935 8.35382C9.82935 8.35382 9.83081 8.37421 9.83421 8.40206C9.84076 8.45558 9.85451 8.53663 9.87899 8.55346C9.90119 8.56872 9.91015 8.46572 9.95743 8.38546C9.98945 8.33109 10.039 8.28715 10.1223 8.29749C10.1985 8.30697 10.267 8.31189 10.3229 8.31432C10.4181 8.31846 10.4772 8.31541 10.4772 8.31541C10.4772 8.31541 10.5467 8.91693 10.5243 8.97326C10.4759 8.96161 10.4058 8.95915 10.3323 8.96432C10.3021 8.96644 10.2714 8.96985 10.2413 8.97443C10.1198 8.99301 10.0102 9.03089 9.99814 9.08077C10.1017 9.07441 10.1777 9.07752 10.228 9.08227C10.2789 9.08707 10.3034 9.09355 10.3034 9.09355C10.3034 9.09355 10.251 9.14132 10.2136 9.19911C10.1839 9.24495 10.1637 9.29711 10.1868 9.33674Z" fill="black"/>
<path d="M10.3864 7.74437C10.3654 7.72271 10.3398 7.69588 10.3084 7.66269C10.2947 7.65903 10.2811 7.65449 10.2675 7.64921L10.2953 7.67147C10.2977 7.67216 10.3 7.67283 10.3023 7.67347C10.3071 7.67853 10.3117 7.68343 10.3162 7.68819L10.3864 7.74437Z" fill="black"/>
<path d="M10.4684 7.83297C10.4684 7.8314 10.4687 7.82924 10.47 7.82702C10.4701 7.82693 10.4701 7.82683 10.4702 7.82674C10.4594 7.81761 10.4373 7.7967 10.3926 7.75074L10.3908 7.7658C10.4252 7.80109 10.4454 7.82055 10.4571 7.8311C10.4599 7.83365 10.4624 7.83573 10.4644 7.83742L10.4713 7.83197L10.4684 7.83297Z" fill="black"/>
<path d="M10.0192 8.18892C10.1156 8.18637 10.2412 8.18928 10.3378 8.19431L10.3393 8.18234C10.2943 8.17999 10.243 8.1781 10.1914 8.177C10.1376 8.17586 10.0832 8.17557 10.0349 8.17652L10.0192 8.18892Z" fill="black"/>
<path d="M9.82935 8.35382C9.82935 8.35382 9.81765 8.37259 9.80475 8.40603L9.81805 8.40424C9.81928 8.40118 9.8205 8.39827 9.82168 8.39551C9.82198 8.39813 9.82231 8.40084 9.82265 8.40362L9.83421 8.40206C9.83081 8.37421 9.82935 8.35382 9.82935 8.35382Z" fill="black"/>
<path d="M10.1223 8.29749C10.039 8.28715 9.98945 8.33109 9.95743 8.38546L9.97247 8.38343C9.98306 8.36687 9.99538 8.35182 10.0099 8.33962C10.037 8.31688 10.0725 8.30343 10.1209 8.30944C10.197 8.3189 10.2654 8.32384 10.3215 8.3263L10.3229 8.31432C10.267 8.31189 10.1985 8.30697 10.1223 8.29749Z" fill="black"/>
<path d="M10.2413 8.97443C10.2714 8.96985 10.3021 8.96644 10.3323 8.96432L10.335 8.95207C10.3044 8.95412 10.2733 8.95749 10.2429 8.96204L10.2413 8.97443Z" fill="black"/>
<path d="M10.3034 9.09355C10.3034 9.09355 10.2789 9.08707 10.228 9.08227L10.2265 9.09421L10.2279 9.09434C10.25 9.09645 10.267 9.09887 10.2789 9.10088C10.276 9.10377 10.2729 9.107 10.2696 9.11053C10.2545 9.12642 10.2348 9.14859 10.2167 9.17368L10.2136 9.19911C10.251 9.14132 10.3034 9.09355 10.3034 9.09355Z" fill="black"/>
<path fill-rule="evenodd" clip-rule="evenodd" d="M10.5021 6.86526L10.3655 6.68489C10.3655 6.68489 10.2761 6.24975 10.4549 6.03985C10.5819 5.93144 10.6265 5.81772 10.6401 5.74296C10.6497 5.69063 10.6441 5.6574 10.641 5.65845C10.6112 5.45623 10.3134 5.31032 10.1123 5.49719C9.99317 5.64565 10.0726 5.75828 10.0726 5.75828C10.0726 5.75828 9.75986 5.84531 9.74744 5.90161C9.73503 5.95794 10.0999 5.89139 10.0999 5.89139L10.0652 6.14992C10.0652 6.14992 9.35526 6.81543 9.89885 7.39136C9.90301 7.38921 9.91242 7.37265 9.91534 7.36737L9.90603 7.35992L9.91442 7.34435L9.92529 7.35819L9.92541 7.35833L9.9258 7.35882C9.92615 7.35926 9.92668 7.35993 9.92739 7.3608C9.9288 7.36256 9.93092 7.36515 9.93369 7.36848C9.93923 7.37514 9.94739 7.38475 9.95782 7.39646C9.96277 7.402 9.96821 7.40802 9.97413 7.41442L9.92154 7.37233C9.95127 7.40855 10.1017 7.58454 10.2675 7.64921L10.2303 7.61944C10.2569 7.63284 10.284 7.64375 10.3113 7.65104L10.3145 7.65189L10.3167 7.65429C10.348 7.68738 10.3736 7.7141 10.3945 7.73566L10.3928 7.74945L10.3864 7.74437L10.3162 7.68819C10.3117 7.68343 10.3071 7.67853 10.3023 7.67347C10.3 7.67283 10.2977 7.67216 10.2953 7.67147L10.3162 7.68819C10.3465 7.72013 10.371 7.74557 10.3908 7.7658L10.3926 7.75074L10.3928 7.74945L10.4753 7.81546C10.4784 7.8182 10.4806 7.81996 10.482 7.82106C10.4829 7.82173 10.4834 7.82203 10.4836 7.82213C10.4833 7.822 10.4826 7.82166 10.4815 7.82146C10.48 7.82118 10.4738 7.82073 10.4702 7.82674L10.47 7.82702C10.4687 7.82924 10.4684 7.8314 10.4684 7.83297L10.4713 7.83197L10.4644 7.83742C10.4659 7.83868 10.4672 7.83972 10.4684 7.84058L10.469 7.84102C10.4692 7.84265 10.4694 7.84452 10.4696 7.84662C10.4706 7.8553 10.4719 7.86779 10.4733 7.88297C10.4763 7.91335 10.4798 7.95446 10.4823 7.99744C10.4848 8.04048 10.4861 8.08515 10.4848 8.12274C10.4841 8.14155 10.4827 8.15834 10.4805 8.17215C10.4791 8.18115 10.4774 8.18843 10.4755 8.19401C10.468 8.19263 10.4582 8.19136 10.447 8.19015C10.4289 8.18822 10.4058 8.18636 10.3793 8.18466C10.3666 8.18385 10.3533 8.18307 10.3393 8.18234L10.3378 8.19431L10.3363 8.20628C10.292 8.20399 10.2417 8.20214 10.1909 8.20106C10.1249 8.19965 10.0583 8.19955 10.0034 8.20144L10.0192 8.18892L10.0349 8.17652C10.0224 8.17677 10.0103 8.1771 9.99866 8.17753C9.97052 8.17855 9.94532 8.18011 9.9248 8.18233C9.90488 8.18448 9.88829 8.18734 9.87772 8.19139C9.87052 8.19363 9.86057 8.19551 9.84772 8.19794L9.84753 8.19797C9.8347 8.2004 9.8196 8.20327 9.80349 8.20748C9.77126 8.2159 9.73435 8.22982 9.70136 8.25707C9.63446 8.31234 9.58789 8.41866 9.61925 8.62953L9.6254 8.6709L9.64149 8.63247C9.66506 8.57617 9.6874 8.52306 9.70384 8.48403L9.70953 8.47051C9.71016 8.47946 9.71104 8.48907 9.71229 8.49902C9.71515 8.52177 9.71995 8.54663 9.72803 8.56947C9.73607 8.5922 9.74765 8.61379 9.76459 8.62908L9.78572 8.64815L9.78391 8.61925C9.77907 8.54181 9.793 8.47686 9.80813 8.4313C9.81144 8.42132 9.81481 8.41227 9.81805 8.40424L9.80475 8.40603L9.79156 8.40781C9.79771 8.39119 9.80374 8.37768 9.80862 8.36769C9.81178 8.36119 9.81447 8.35618 9.81638 8.35275C9.81734 8.35103 9.8181 8.34971 9.81864 8.3488C9.81891 8.34835 9.81912 8.34799 9.81928 8.34774L9.81946 8.34745L9.81951 8.34736L9.81954 8.34731L9.82044 8.34586L9.83942 8.33088L9.84099 8.35296L9.841 8.35304L9.84102 8.3534L9.84113 8.35481C9.84123 8.35607 9.84138 8.35792 9.84158 8.36029C9.84199 8.36503 9.84261 8.37185 9.84347 8.38013C9.84411 8.38622 9.84488 8.3931 9.84578 8.4005L9.83421 8.40206L9.82265 8.40362C9.82423 8.41658 9.82624 8.43116 9.82871 8.44607C9.83263 8.46968 9.83779 8.49451 9.84446 8.51525C9.84779 8.52562 9.8516 8.53529 9.85598 8.5434C9.86028 8.55133 9.86564 8.55874 9.87252 8.56347C9.8774 8.56682 9.88354 8.56824 9.88981 8.56574C9.89513 8.56361 9.8988 8.55929 9.90127 8.55561C9.90626 8.54819 9.91058 8.53687 9.91474 8.52465C9.91707 8.51783 9.91945 8.51041 9.92198 8.50255C9.92895 8.48086 9.93701 8.45577 9.94798 8.43037C9.95499 8.41414 9.96304 8.39818 9.97247 8.38343L9.95743 8.38546L9.94278 8.38743C9.95632 8.36279 9.97331 8.33932 9.9952 8.32095C10.0272 8.2941 10.069 8.27876 10.1236 8.28555C10.2 8.29504 10.2685 8.29994 10.3244 8.30234L10.3229 8.31432L10.3215 8.3263C10.3415 8.32718 10.36 8.32774 10.3767 8.32808C10.3787 8.32812 10.3805 8.32816 10.3824 8.32819L10.4772 8.31541L10.4694 8.35034C10.4712 8.36622 10.4735 8.38711 10.4761 8.41161C10.4823 8.46885 10.4903 8.54573 10.4975 8.62436C10.5048 8.70302 10.5114 8.78329 10.5148 8.84736C10.5164 8.87941 10.5173 8.90723 10.5171 8.92869C10.517 8.93942 10.5166 8.94839 10.5159 8.95541C10.5158 8.95671 10.5156 8.95791 10.5155 8.95902C10.4674 8.9494 10.4025 8.94754 10.335 8.95207L10.3323 8.96432L10.3296 8.97657C10.2998 8.97876 10.2694 8.98221 10.2398 8.98683L10.2413 8.97443L10.2429 8.96204C10.2324 8.96361 10.222 8.96532 10.2118 8.96717C10.1562 8.97717 10.1041 8.9913 10.0642 9.009C10.0443 9.01785 10.027 9.02779 10.0137 9.03888C10.0005 9.0499 9.99046 9.06283 9.98682 9.07785L9.98296 9.09375L9.99883 9.09278C10.1016 9.08647 10.1769 9.08954 10.2265 9.09421L10.228 9.08227L10.2295 9.07033L10.23 9.07038C10.2555 9.07281 10.2744 9.07565 10.287 9.0779C10.2934 9.07903 10.2981 9.08001 10.3013 9.08071L10.3021 9.08089C10.3025 9.08098 10.3029 9.08106 10.3032 9.08113C10.3039 9.0813 10.3045 9.08144 10.305 9.08156L10.3059 9.0818L10.3061 9.08183L10.3034 9.09355L10.3117 9.10206L10.3112 9.10257L10.3107 9.10296L10.31 9.10363L10.3094 9.1042C10.3082 9.10531 10.3065 9.10695 10.3043 9.10909C10.2999 9.11337 10.2936 9.1196 10.2862 9.12737C10.2714 9.14293 10.2524 9.1645 10.2349 9.18872C10.2258 9.20144 10.2172 9.21473 10.21 9.22813L10.2136 9.19911L10.2167 9.17368L10.2162 9.17438C10.198 9.19965 10.181 9.22846 10.1719 9.25723C10.1629 9.28601 10.1613 9.3164 10.1768 9.34292L10.185 9.35711L10.1956 9.34465L10.2004 9.30541C10.2082 9.29785 10.218 9.28875 10.2298 9.27858C10.2639 9.2492 10.3149 9.21085 10.3825 9.17471L10.3117 9.10206L10.3277 9.08754L10.3063 9.0819L10.3063 9.08189L10.3061 9.08183L10.3296 8.97657C10.4035 8.97114 10.4739 8.97348 10.5217 8.98497L10.5314 8.9873L10.5351 8.97781C10.5372 8.97257 10.5384 8.96544 10.5391 8.95777C10.5399 8.94979 10.5403 8.94006 10.5404 8.92896C10.5406 8.90674 10.5397 8.87832 10.5381 8.84606C10.5347 8.7815 10.5281 8.70083 10.5208 8.62207C10.5135 8.54328 10.5055 8.46626 10.4993 8.40895C10.4962 8.3803 10.4936 8.35656 10.4917 8.33999C10.4908 8.3317 10.4901 8.32521 10.4896 8.32078L10.4888 8.314L10.4875 8.30284L10.4766 8.3034L10.4765 8.3034L10.4762 8.30342L10.475 8.30347C10.4739 8.30352 10.4722 8.30359 10.47 8.30367C10.4656 8.30383 10.459 8.30403 10.4505 8.30419C10.4334 8.3045 10.4085 8.30466 10.3772 8.30403C10.3612 8.3037 10.3436 8.30317 10.3244 8.30234L10.3363 8.20628C10.3509 8.20703 10.3648 8.20783 10.3778 8.20867C10.4042 8.21037 10.427 8.2122 10.4446 8.21408C10.4626 8.21602 10.4741 8.21789 10.4786 8.21938L10.4875 8.22227L10.4922 8.21396C10.4977 8.20434 10.5012 8.19093 10.5035 8.17605C10.506 8.16088 10.5074 8.143 10.5081 8.12365C10.5095 8.08493 10.5081 8.03937 10.5056 7.99602C10.5031 7.95261 10.4995 7.91117 10.4966 7.88059C10.4951 7.86529 10.4938 7.8527 10.4928 7.84393C10.4923 7.83973 10.492 7.8364 10.4917 7.83407C10.4919 7.83187 10.4915 7.83019 10.4914 7.82976L10.4914 7.82971C10.4911 7.82833 10.4906 7.82725 10.4904 7.82677C10.4902 7.82646 10.4901 7.82621 10.49 7.82602L10.4899 7.82576L10.4898 7.82565L10.4898 7.82561L10.4898 7.82559L10.4713 7.83197L10.4837 7.82219L10.4836 7.82215L10.4836 7.82213L10.4753 7.81546C10.4744 7.8147 10.4735 7.81387 10.4724 7.81296C10.4598 7.80165 10.4367 7.77917 10.3945 7.73566L10.5021 6.86526ZM10.4898 7.82559C10.4896 7.82565 10.4886 7.82628 10.4797 7.83163L10.4898 7.82559ZM10.2004 9.30541C10.197 9.30878 10.1939 9.31185 10.1912 9.31458L10.1906 9.31526C10.1867 9.30027 10.1883 9.28322 10.1941 9.26466C10.1979 9.25263 10.2034 9.24034 10.21 9.22813L10.2004 9.30541ZM10.2295 9.07033C10.182 9.06583 10.1121 9.06278 10.0182 9.06759C10.021 9.06432 10.0243 9.06097 10.0284 9.05757C10.0394 9.04836 10.0546 9.03946 10.0735 9.03111C10.111 9.01442 10.1612 9.0007 10.2158 8.99087C10.2237 8.98944 10.2317 8.98809 10.2398 8.98683L10.2295 9.07033ZM9.94278 8.38743C9.93677 8.39836 9.93144 8.40953 9.92667 8.42058C9.91518 8.44717 9.90654 8.47407 9.8995 8.49597C9.89707 8.50354 9.89483 8.51052 9.89273 8.51667C9.88873 8.52841 9.88549 8.53641 9.88269 8.54098C9.8808 8.53893 9.87865 8.53591 9.87635 8.53167C9.87294 8.52536 9.86967 8.51723 9.8666 8.50769C9.86047 8.4886 9.85555 8.46512 9.85171 8.44201C9.8493 8.42746 9.84733 8.4132 9.84578 8.4005L9.94278 8.38743ZM9.73179 8.41586L9.79156 8.40781C9.78972 8.41277 9.78788 8.418 9.78605 8.4235C9.77264 8.46388 9.76015 8.51871 9.75962 8.58367C9.756 8.57678 9.75279 8.56925 9.74995 8.56122C9.74266 8.54062 9.73816 8.51764 9.73543 8.49593C9.73271 8.47426 9.7318 8.45417 9.73157 8.43949C9.73145 8.43216 9.73151 8.4262 9.7316 8.42209C9.73164 8.42004 9.73169 8.41846 9.73172 8.4174L9.73177 8.41621L9.73178 8.41592L9.73179 8.41586ZM9.73179 8.41586L9.82044 8.34586L9.83843 8.31702L9.83942 8.33088L10.0034 8.20144L9.99948 8.20157C9.97162 8.20259 9.94701 8.20412 9.92723 8.20626C9.90709 8.20843 9.89305 8.21112 9.88561 8.21403L9.88526 8.21417L9.8849 8.21428C9.87635 8.217 9.86514 8.21911 9.85312 8.22138L9.85173 8.22164C9.83888 8.22407 9.82448 8.22682 9.80922 8.23081C9.7787 8.23878 9.74533 8.25158 9.71595 8.27585C9.6623 8.32016 9.61839 8.40591 9.63685 8.5829C9.65408 8.54181 9.66996 8.50407 9.68244 8.47444C9.69066 8.45492 9.69741 8.43892 9.70211 8.4278L9.70944 8.41044L9.73179 8.41586ZM10.2303 7.61944C10.1617 7.58481 10.097 7.53355 10.0447 7.48512C10.0172 7.4596 9.99321 7.43503 9.97413 7.41442L10.2303 7.61944ZM10.0756 5.7699L10.092 5.76534L10.0821 5.75124L10.082 5.7512L10.082 5.75109C10.0819 5.75094 10.0817 5.75069 10.0815 5.75034C10.081 5.74963 10.0803 5.74852 10.0795 5.74701C10.0777 5.744 10.0753 5.73943 10.0727 5.73345C10.0675 5.72149 10.0617 5.70399 10.0594 5.6821C10.0548 5.63884 10.0636 5.57705 10.1208 5.50554C10.2175 5.41603 10.3373 5.4062 10.4369 5.44323C10.5373 5.48053 10.6154 5.56456 10.6295 5.66026L10.6316 5.67438L10.6332 5.67383C10.6336 5.67826 10.6338 5.68399 10.6338 5.69091C10.6336 5.71106 10.6304 5.74046 10.6205 5.77572C10.6007 5.8461 10.5535 5.94001 10.4474 6.03058L10.4467 6.03119L10.4461 6.03191C10.3538 6.14035 10.3315 6.3055 10.3315 6.44108C10.3315 6.50925 10.3371 6.57074 10.3428 6.61518C10.3456 6.63741 10.3484 6.6554 10.3505 6.66786C10.3516 6.67409 10.3525 6.67894 10.3531 6.68225C10.3534 6.6839 10.3536 6.68517 10.3538 6.68603L10.354 6.68702L10.3541 6.68728L10.3541 6.68735L10.0999 5.89139C10.0979 5.87955 10.0979 5.87955 10.0979 5.87955L10.0976 5.87959L10.0969 5.87973L10.0938 5.88027C10.0912 5.88074 10.0873 5.88142 10.0823 5.88228C10.0724 5.88398 10.0583 5.88635 10.0413 5.88902C10.0074 5.89436 9.96239 5.90089 9.91782 5.90566C9.87309 5.91045 9.82938 5.9134 9.79787 5.91176C9.78189 5.91094 9.77024 5.90897 9.7633 5.90615C9.76084 5.90516 9.75956 5.90428 9.75896 5.90377C9.75983 5.90097 9.76327 5.89586 9.77212 5.88881C9.78101 5.88172 9.79349 5.8741 9.80872 5.86622C9.83912 5.85049 9.87882 5.83453 9.91853 5.82019C9.95816 5.80587 9.99745 5.7933 10.0269 5.78429C10.0416 5.77979 10.0538 5.77619 10.0623 5.77371C10.0666 5.77247 10.0699 5.77152 10.0722 5.77087L10.0748 5.77014L10.0756 5.7699ZM10.0756 5.7699C10.0756 5.7699 10.0756 5.76989 10.0726 5.75828L10.0756 5.7699Z" fill="black"/>
<path fill-rule="evenodd" clip-rule="evenodd" d="M10.6401 5.74296C10.6497 5.69063 10.6441 5.6574 10.641 5.65845C10.6112 5.45623 10.3134 5.31032 10.1123 5.49719C9.99317 5.64565 10.0726 5.75828 10.0726 5.75828C10.0726 5.75828 9.75986 5.84531 9.74744 5.90161C9.73503 5.95794 10.0999 5.89139 10.0999 5.89139L10.0652 6.14992C10.0652 6.14992 9.35526 6.81543 9.89885 7.39136C9.90301 7.38921 9.91242 7.37265 9.91534 7.36737L9.92154 7.37233C9.95127 7.40855 10.1017 7.58454 10.2675 7.64921L10.2953 7.67147C10.1957 7.64176 10.1 7.56865 10.0291 7.50302C9.99233 7.46895 9.96189 7.43659 9.94064 7.41274C9.93111 7.40203 9.92341 7.39303 9.91782 7.38635C9.91626 7.38882 9.91458 7.39135 9.91294 7.39357C9.91186 7.39503 9.91067 7.39653 9.90944 7.39786C9.9084 7.39898 9.90653 7.40085 9.90407 7.40212L9.89644 7.40606L9.89049 7.39975C9.75277 7.25384 9.69397 7.10163 9.68387 6.95527C9.67379 6.80919 9.7123 6.6699 9.76761 6.54951C9.82293 6.42911 9.89533 6.32705 9.95378 6.25517C9.98303 6.21921 10.0088 6.19073 10.0274 6.17122C10.0366 6.16147 10.0441 6.15395 10.0492 6.14885C10.0512 6.14687 10.0529 6.14526 10.0542 6.14402L10.0862 5.90601C10.0762 5.90773 10.0619 5.91012 10.0449 5.9128C10.0107 5.91818 9.96531 5.92477 9.92023 5.92959C9.87529 5.9344 9.8301 5.93753 9.79669 5.93579C9.78021 5.93494 9.76539 5.93286 9.75475 5.92854C9.74943 5.92638 9.74399 5.9232 9.74019 5.91822C9.73597 5.9127 9.73453 5.90593 9.73607 5.89895C9.73859 5.88753 9.74779 5.87779 9.75784 5.86977C9.76843 5.86133 9.78242 5.85291 9.79825 5.84471C9.82999 5.82829 9.8708 5.81193 9.91082 5.79748C9.95093 5.78299 9.9906 5.7703 10.0202 5.76123C10.0344 5.75687 10.0463 5.75335 10.0549 5.75086C10.0538 5.74858 10.0526 5.74605 10.0514 5.74327C10.0454 5.72947 10.0388 5.70954 10.0362 5.68472C10.0309 5.63468 10.0418 5.56619 10.1033 5.48952L10.1039 5.48885L10.1045 5.48826C10.2087 5.39144 10.3381 5.38091 10.4448 5.42059C10.5499 5.45962 10.6348 5.54802 10.652 5.65291L10.641 5.74152L10.6401 5.74296Z" fill="black"/>
<path d="M10.2708 6.05423C10.2708 6.05423 9.7543 6.64136 9.97715 7.09065C9.98312 7.05912 9.98478 7.03348 9.9859 7.01612C9.9869 7.00065 9.98747 6.99175 9.9903 6.99112C9.9896 6.99035 9.98984 6.9903 9.99129 6.9912C9.99093 6.99107 9.9906 6.99105 9.9903 6.99112C9.99065 6.99149 9.99122 6.99205 9.99199 6.99275L9.99729 6.98088C9.99679 6.98057 9.99613 6.98018 9.99543 6.97983C9.9951 6.97967 9.99448 6.97937 9.9937 6.97911L9.99368 6.97911C9.99339 6.979 9.99074 6.97806 9.98751 6.97877C9.98529 6.97927 9.98191 6.98078 9.9798 6.98459C9.97965 6.98485 9.97952 6.98511 9.9794 6.98537L9.97921 6.98566C9.97727 6.98877 9.97652 6.99242 9.97612 6.99473C9.97527 6.99965 9.97481 7.00674 9.9743 7.01464L9.97423 7.01567C9.97364 7.02485 9.9729 7.03618 9.97147 7.04937C9.88658 6.83867 9.95535 6.60072 10.0508 6.40946C10.1011 6.30875 10.1583 6.22189 10.203 6.16019C10.2179 6.1395 10.2315 6.12166 10.2429 6.10708L10.2165 6.22286C10.219 6.21541 10.2216 6.20796 10.2241 6.2005C10.2407 6.15204 10.2573 6.10345 10.2708 6.05423Z" fill="#9CA69C"/>
<path d="M10.1479 6.52371C10.1514 6.42061 10.1829 6.32181 10.2165 6.22286L10.1479 6.52371Z" fill="#9CA69C"/>
<path d="M10.0442 6.94817L10.0507 6.94984L10.0534 6.93813L10.0262 6.93114C10.0262 6.93114 10.0357 6.95756 10.0426 6.98544L10.0481 6.96113C10.0468 6.95651 10.0454 6.95214 10.0442 6.94817Z" fill="#9CA69C"/>
<path fill-rule="evenodd" clip-rule="evenodd" d="M10.0583 6.95181L10.0507 6.94984L10.0534 6.93813L10.0262 6.93114C10.0262 6.93114 10.0357 6.95756 10.0426 6.98544L10.0481 6.96113C10.0486 6.96294 10.0492 6.96478 10.0497 6.96666C10.0554 6.98708 10.0616 7.01318 10.0613 7.03165C10.0613 7.03201 10.0614 7.03238 10.0614 7.03277C10.0617 7.03518 10.0615 7.04009 10.0573 7.04379C10.0537 7.04696 10.0497 7.04688 10.0484 7.04679C10.0467 7.04668 10.0453 7.04625 10.0445 7.04597C10.0415 7.04493 10.0379 7.04278 10.0349 7.04085C10.0284 7.0366 10.0194 7.03001 10.011 7.02348C10.0064 7.01996 10.0018 7.01638 9.99779 7.01311L9.99751 7.01727C9.99639 7.0347 9.99468 7.06084 9.9886 7.09296L9.98213 7.12712L9.96676 7.09613C9.85263 6.86603 9.92839 6.60216 10.0301 6.39845C10.0811 6.29622 10.1391 6.20821 10.1843 6.14579C10.2069 6.11456 10.2263 6.0897 10.2401 6.07263C10.247 6.06409 10.2525 6.0575 10.2563 6.05302C10.2582 6.05079 10.2597 6.04908 10.2607 6.04793L10.2618 6.04661L10.2621 6.04627L10.2622 6.04614L10.2708 6.05423C10.2708 6.05423 9.7543 6.64136 9.97715 7.09065C9.98312 7.05912 9.98478 7.03348 9.9859 7.01612C9.9869 7.00065 9.98747 6.99175 9.9903 6.99112C9.99065 6.99149 9.99122 6.99205 9.99199 6.99275L9.98772 7.00233C9.98788 7.00236 9.98804 7.00239 9.98822 7.00242C9.98887 7.00253 9.99045 7.00273 9.99241 7.0023C9.99417 7.00191 9.99668 7.00086 9.99869 6.9985C9.99585 6.99614 9.99353 6.99415 9.99199 6.99275L9.99729 6.98088C9.99679 6.98057 9.99613 6.98018 9.99543 6.97983C9.9951 6.97967 9.99448 6.97937 9.9937 6.97911L9.99368 6.97911C9.99339 6.979 9.99074 6.97806 9.98751 6.97877C9.98529 6.97927 9.98191 6.98078 9.9798 6.98459C9.97965 6.98485 9.97952 6.98511 9.9794 6.98537L9.97921 6.98566C9.97727 6.98877 9.97652 6.99242 9.97612 6.99473C9.97527 6.99965 9.97481 7.00674 9.9743 7.01464L9.97423 7.01567C9.97364 7.02485 9.9729 7.03618 9.97147 7.04937C9.88658 6.83867 9.95535 6.60072 10.0508 6.40946C10.1011 6.30875 10.1583 6.22189 10.203 6.16019C10.2179 6.1395 10.2315 6.12166 10.2429 6.10708L10.2165 6.22286C10.1829 6.32181 10.1514 6.42061 10.1479 6.52371L10.2165 6.22286C10.219 6.21541 10.2216 6.20796 10.2241 6.2005C10.2407 6.15204 10.2573 6.10345 10.2708 6.05423L10.2633 6.04714C10.2624 6.04632 10.2622 6.04617 10.2622 6.04614L10.2821 6.05752C10.2684 6.10714 10.2516 6.15615 10.2351 6.20463L10.2351 6.2047L10.235 6.20473C10.2313 6.21555 10.2277 6.22635 10.224 6.23712C10.204 6.29638 10.1852 6.35509 10.1731 6.41456C10.1489 6.53304 10.151 6.65434 10.2228 6.78713L10.2334 6.80684L10.2116 6.80497L10.2006 6.80404C10.1938 6.80348 10.1848 6.80273 10.1753 6.80198C10.1628 6.80099 10.15 6.80003 10.1412 6.79948L10.1413 6.79978C10.1428 6.80806 10.1459 6.81951 10.1495 6.83144C10.1531 6.84326 10.157 6.85512 10.1601 6.86405C10.1616 6.86851 10.1629 6.87222 10.1638 6.87482C10.1643 6.87611 10.1647 6.87713 10.1649 6.87782L10.1652 6.8786L10.1653 6.87884L10.172 6.89733L10.153 6.89503C10.1367 6.89305 10.1203 6.89106 10.1038 6.88907L10.0762 6.88573L10.0861 6.90468C10.0929 6.91754 10.0996 6.9304 10.1064 6.94346L10.1189 6.96743L10.0933 6.96083L10.0583 6.95181ZM9.9903 6.99112C9.9896 6.99035 9.98984 6.9903 9.99129 6.9912C9.99093 6.99107 9.9906 6.99105 9.9903 6.99112ZM10.0683 6.87265L10.0646 6.88882L10.0553 6.87108L10.0683 6.87265Z" fill="#9CA69C"/>
<path d="M10.0646 6.88882L10.0683 6.87265L10.0553 6.87108L10.0646 6.88882Z" fill="#9CA69C"/>
<path d="M9.98772 7.00233C9.98788 7.00236 9.98804 7.00239 9.98822 7.00242C9.98887 7.00253 9.99045 7.00273 9.99241 7.0023C9.99417 7.00191 9.99668 7.00086 9.99869 6.9985C9.99585 6.99614 9.99353 6.99415 9.99199 6.99275L9.98772 7.00233Z" fill="#9CA69C"/>
<path fill-rule="evenodd" clip-rule="evenodd" d="M10.4556 5.54127L10.4346 5.52808L10.438 5.55321L10.438 5.5533L10.438 5.55367C10.4381 5.55402 10.4381 5.55455 10.4382 5.55526C10.4384 5.55668 10.4386 5.55879 10.4389 5.56152C10.4394 5.56699 10.44 5.57491 10.4405 5.58462C10.4413 5.60406 10.4414 5.6305 10.4382 5.65863C10.4318 5.71586 10.4125 5.77558 10.3646 5.80202L10.3639 5.80239L10.3633 5.80284C10.3603 5.80507 10.3551 5.80784 10.3478 5.81176L10.3443 5.8136C10.3357 5.81821 10.3255 5.82386 10.316 5.83054C10.3066 5.83716 10.2972 5.84534 10.2909 5.85536C10.2843 5.86571 10.2809 5.87819 10.2843 5.89222C10.2876 5.90718 10.2923 5.91896 10.299 5.92768C10.3059 5.93674 10.3145 5.94189 10.3242 5.94406C10.3334 5.94614 10.3432 5.94538 10.3527 5.94377C10.3604 5.94246 10.3687 5.94041 10.377 5.93835L10.3771 5.93834C10.3788 5.93791 10.3806 5.93747 10.3824 5.93704C10.4135 5.93122 10.4445 5.91017 10.4706 5.88158C10.4969 5.85272 10.519 5.81521 10.5319 5.77481C10.5449 5.73442 10.5488 5.69051 10.5379 5.64923C10.5268 5.60768 10.5008 5.56968 10.4556 5.54127ZM10.4434 5.56182L10.4495 5.55154C10.4495 5.55154 10.4503 5.55717 10.451 5.56683C10.4486 5.56513 10.4461 5.56346 10.4434 5.56182ZM10.4495 5.55154C10.4539 5.55432 10.4582 5.55719 10.4622 5.56014L10.4621 5.55917C10.4618 5.55626 10.4616 5.55397 10.4614 5.5524C10.4613 5.55161 10.4612 5.551 10.4612 5.55058L10.4611 5.55008L10.4611 5.54995L10.4611 5.54991C10.4611 5.5499 10.4611 5.54988 10.4495 5.55154ZM10.3701 5.81263C10.459 5.76358 10.4549 5.61503 10.451 5.56683C10.4554 5.56983 10.4595 5.57293 10.4634 5.57612C10.4635 5.57845 10.4636 5.58092 10.4638 5.5835C10.4647 5.60381 10.4648 5.63161 10.4614 5.6614C10.4548 5.71978 10.4345 5.79031 10.3762 5.82289C10.3764 5.82273 10.3767 5.82257 10.3769 5.82242L10.3701 5.81263Z" fill="#9CA69C"/>
<path d="M10.4638 5.5835C10.4636 5.58092 10.4635 5.57845 10.4634 5.57612C10.4595 5.57293 10.4554 5.56983 10.451 5.56683C10.4549 5.61503 10.459 5.76358 10.3701 5.81263L10.3769 5.82242C10.3767 5.82257 10.3764 5.82273 10.3762 5.82289C10.4345 5.79031 10.4548 5.71978 10.4614 5.6614C10.4648 5.63161 10.4647 5.60381 10.4638 5.5835Z" fill="#9CA69C"/>
<path d="M10.4621 5.55917C10.4618 5.55626 10.4616 5.55397 10.4614 5.5524C10.4613 5.55161 10.4612 5.551 10.4612 5.55058L10.4611 5.55008L10.4611 5.54995L10.4611 5.54991C10.4611 5.5499 10.4611 5.54988 10.4495 5.55154C10.4539 5.55432 10.4582 5.55719 10.4622 5.56014L10.4621 5.55917Z" fill="#9CA69C"/>
<path d="M10.4495 5.55154L10.4434 5.56182C10.4461 5.56346 10.4486 5.56513 10.451 5.56683C10.4503 5.55717 10.4495 5.55154 10.4495 5.55154Z" fill="#9CA69C"/>
<path d="M10.2194 5.769C10.2426 5.769 10.2614 5.74961 10.2614 5.72569C10.2614 5.70176 10.2426 5.68237 10.2194 5.68237C10.1962 5.68237 10.1774 5.70176 10.1774 5.72569C10.1774 5.74961 10.1962 5.769 10.2194 5.769Z" fill="white"/>
<path d="M10.0921 5.8938C10.0648 5.91684 9.9208 6.07045 10.0623 6.12676C10.2088 6.08579 10.169 6.05765 10.2013 6.02436C10.2021 5.95525 10.1285 5.93733 10.0921 5.8938Z" fill="#D90000"/>
<path fill-rule="evenodd" clip-rule="evenodd" d="M10.0938 5.87695L10.1012 5.88583C10.1094 5.89559 10.1199 5.9042 10.1317 5.91295C10.1354 5.91569 10.1394 5.9185 10.1433 5.92136C10.1517 5.92732 10.1603 5.93352 10.1682 5.93992C10.1922 5.95938 10.2138 5.98429 10.2133 6.0244L10.2132 6.02929L10.2099 6.03276C10.2034 6.03938 10.2006 6.04562 10.1977 6.05302C10.1974 6.05386 10.197 6.05474 10.1967 6.05564C10.194 6.06264 10.1907 6.07131 10.1841 6.07999C10.1691 6.09968 10.139 6.11774 10.0657 6.13826L10.062 6.13929L10.0584 6.13787C10.0206 6.12284 9.99968 6.10028 9.99247 6.07288C9.98546 6.04625 9.99226 6.01791 10.0036 5.99263C10.0263 5.94211 10.0705 5.89659 10.085 5.88438L10.0938 5.87695ZM10.0633 6.11398C10.1335 6.09401 10.1561 6.07786 10.1658 6.06514C10.1701 6.05937 10.1722 6.05395 10.175 6.04684C10.1753 6.04594 10.1757 6.04501 10.1761 6.04404C10.179 6.03661 10.1826 6.02825 10.1899 6.01959C10.1887 5.99314 10.1744 5.97556 10.1538 5.95883C10.1464 5.95285 10.1388 5.94739 10.1308 5.94169C10.1267 5.93873 10.1225 5.9357 10.1181 5.93251C10.1091 5.92582 10.1 5.91861 10.0917 5.91043C10.0744 5.92746 10.0422 5.96393 10.0248 6.00275C10.0144 6.0258 10.0101 6.04786 10.015 6.06658C10.0195 6.08389 10.0328 6.10101 10.0633 6.11398Z" fill="black"/>
<path fill-rule="evenodd" clip-rule="evenodd" d="M10.3994 7.31714L10.4145 7.33798C10.5006 7.45724 10.5396 7.49238 10.6408 7.57642L10.6272 7.59589C10.6075 7.58278 10.5848 7.57281 10.5523 7.57222C10.5195 7.57163 10.4758 7.58061 10.4146 7.60712L10.4044 7.61153L10.3996 7.60129C10.376 7.55121 10.373 7.49436 10.3764 7.44666C10.3796 7.40412 10.388 7.36775 10.3923 7.34872C10.3929 7.34636 10.3934 7.34427 10.3938 7.34246L10.3994 7.31714Z" fill="#9CA69C"/>
<path d="M10.624 7.91575L10.606 7.90503L10.6142 8.223L10.6236 8.22473L10.6236 8.22473L10.6237 8.22475L10.6239 8.22479L10.6248 8.22494C10.6255 8.22508 10.6266 8.22527 10.628 8.2255C10.6308 8.22597 10.6349 8.22661 10.6398 8.22732C10.6498 8.22875 10.6636 8.23046 10.6788 8.23161C10.6939 8.23275 10.7108 8.23334 10.7268 8.23246C10.7426 8.2316 10.7585 8.22926 10.7713 8.2241C10.7807 8.22035 10.7868 8.21255 10.7904 8.20352C10.7939 8.19464 10.7952 8.18395 10.7949 8.17251C10.7945 8.14959 10.7877 8.1209 10.775 8.09068C10.7497 8.03013 10.6997 7.96076 10.624 7.91575Z" fill="white"/>
<path d="M11.3208 7.96239C11.3208 7.96239 11.1421 7.51701 10.6854 7.40438C10.2286 7.29175 10.2882 6.79006 10.3254 6.75934C10.3453 6.71581 10.3602 6.64927 10.4917 6.71327C10.6233 6.77726 11.2289 7.09209 11.3158 7.10745C11.4027 7.12281 11.3282 7.97264 11.3208 7.96239Z" fill="#9CA69C"/>
<path fill-rule="evenodd" clip-rule="evenodd" d="M10.3414 6.75217C10.3398 6.75596 10.3381 6.75982 10.3363 6.7638L10.3352 6.76633L10.3331 6.76806C10.3331 6.76806 10.3331 6.76806 10.3331 6.76806C10.3331 6.76807 10.3327 6.76844 10.3319 6.76956C10.3312 6.77074 10.3303 6.77243 10.3293 6.77472C10.3273 6.7793 10.3251 6.78563 10.3231 6.79366C10.319 6.80967 10.3155 6.83146 10.3137 6.85745C10.3101 6.90941 10.3134 6.97715 10.3317 7.04735C10.3684 7.18724 10.4649 7.33691 10.6884 7.39202C10.9199 7.44912 11.0808 7.59053 11.1836 7.71725C11.235 7.78063 11.272 7.84045 11.2962 7.88446C11.304 7.89865 11.3104 7.9112 11.3156 7.92171C11.3181 7.89988 11.321 7.86965 11.3241 7.83358C11.3307 7.75527 11.338 7.6497 11.3423 7.54336C11.3467 7.43694 11.348 7.3301 11.343 7.24908C11.3404 7.20847 11.3363 7.17497 11.3303 7.15141C11.3273 7.13957 11.324 7.13096 11.3207 7.12536C11.3172 7.1196 11.3148 7.11877 11.3142 7.11865C11.3019 7.11649 11.2819 7.10942 11.2569 7.09927C11.2315 7.08897 11.2001 7.07508 11.1645 7.05871C11.0933 7.02596 11.0052 6.98311 10.9158 6.93878C10.8191 6.8908 10.7209 6.84118 10.6408 6.80064C10.5726 6.76614 10.5174 6.73822 10.4871 6.7235C10.4221 6.69188 10.3904 6.69484 10.373 6.70563C10.3641 6.71119 10.3575 6.71964 10.3518 6.73005C10.3478 6.7373 10.3447 6.74458 10.3414 6.75217ZM11.3107 7.95716C11.3107 7.95714 11.3107 7.95709 11.3107 7.95701C11.3107 7.95715 11.3107 7.95719 11.3107 7.95716ZM10.497 6.70173C10.4305 6.66934 10.3889 6.66766 10.361 6.68502C10.3473 6.69354 10.3382 6.70588 10.3315 6.71819C10.3269 6.72648 10.323 6.73568 10.3195 6.74382C10.3183 6.74653 10.3172 6.74912 10.3161 6.75152C10.3127 6.75518 10.3101 6.76003 10.308 6.76478C10.3053 6.77098 10.3028 6.77869 10.3005 6.78754C10.296 6.80529 10.2923 6.8286 10.2904 6.85573C10.2867 6.91 10.2901 6.98048 10.3092 7.05362C10.3477 7.20042 10.4497 7.35791 10.683 7.41543C10.9081 7.47096 11.065 7.60856 11.1657 7.73269C11.216 7.79474 11.2523 7.8533 11.2759 7.89632C11.2877 7.91782 11.2963 7.93541 11.302 7.94759C11.3048 7.95368 11.3069 7.95842 11.3083 7.9616C11.309 7.9632 11.3095 7.9644 11.3098 7.9652L11.3102 7.96609L11.3103 7.96629L11.3103 7.96634L11.3109 7.96774L11.3118 7.96896C11.3125 7.97 11.314 7.97174 11.3166 7.97286C11.3194 7.97413 11.3225 7.97414 11.3252 7.97316C11.3293 7.97168 11.3311 7.96842 11.3315 7.96785L11.3315 7.96781C11.3325 7.96604 11.333 7.96418 11.3332 7.96349C11.3337 7.96153 11.3342 7.9589 11.3347 7.95601C11.3357 7.95004 11.3369 7.94119 11.3382 7.93C11.3408 7.90754 11.344 7.87499 11.3473 7.83569C11.354 7.75706 11.3613 7.65113 11.3656 7.54437C11.37 7.4377 11.3714 7.32985 11.3662 7.24752C11.3637 7.20646 11.3594 7.17113 11.3529 7.14532C11.3496 7.13246 11.3456 7.12125 11.3405 7.11273C11.3355 7.10435 11.3283 7.09674 11.3181 7.09494C11.3086 7.09326 11.2907 7.08713 11.2654 7.07688C11.2405 7.06677 11.2094 7.05304 11.174 7.03673C11.1031 7.00413 11.0152 6.9614 10.9259 6.9171C10.8297 6.86936 10.7315 6.81973 10.6512 6.77913C10.5828 6.7445 10.5273 6.71645 10.497 6.70173Z" fill="black"/>
<path d="M10.8869 7.40188C10.8795 7.407 11.4975 7.77814 11.3113 8.09811C11.4876 7.9778 11.4305 7.76792 11.4305 7.76792C11.4305 7.76792 11.5745 8.15444 11.2245 8.34386C11.2617 8.37714 11.2865 8.36944 11.2865 8.36944L11.227 8.43088C11.227 8.43088 11.1996 8.47695 11.4355 8.3592C11.3709 8.41296 11.366 8.45135 11.366 8.45135C11.366 8.45135 11.3833 8.50255 11.5372 8.36432C11.4131 8.50255 11.3858 8.57422 11.3858 8.57166C11.7209 8.54094 12.4506 7.41725 11.155 7.08447C11.2245 7.15872 11.2145 7.14848 11.2145 7.14848L10.8869 7.40188Z" fill="#D90000"/>
<path fill-rule="evenodd" clip-rule="evenodd" d="M11.1177 7.06323L11.1571 7.07337C11.4827 7.15697 11.6828 7.29072 11.7935 7.44637C11.9044 7.60222 11.9244 7.77844 11.8927 7.94423C11.8611 8.10978 11.7779 8.26536 11.6815 8.38151C11.6333 8.43962 11.5816 8.48811 11.5311 8.52314C11.4812 8.55771 11.4318 8.57968 11.3875 8.58408C11.386 8.58441 11.3842 8.58448 11.3821 8.58391C11.3764 8.58232 11.3745 8.57745 11.374 8.57591C11.3735 8.57416 11.3735 8.5727 11.3735 8.57223V8.56122L11.3779 8.56081C11.3788 8.55911 11.3798 8.55703 11.3811 8.5546C11.3858 8.54579 11.3932 8.53246 11.4046 8.51472C11.4164 8.49625 11.4325 8.47301 11.454 8.44516C11.4282 8.4617 11.4093 8.46941 11.3953 8.47207C11.3814 8.47471 11.3713 8.47257 11.3642 8.46791C11.3607 8.46565 11.3584 8.46304 11.3568 8.46079C11.3561 8.45968 11.3555 8.45866 11.3551 8.45782C11.3549 8.4574 11.3547 8.45702 11.3546 8.4567C11.3545 8.45653 11.3545 8.45638 11.3544 8.45625L11.3544 8.45606L11.3543 8.45597L11.3543 8.45593C11.3543 8.45591 11.3543 8.45589 11.3653 8.45192C11.3537 8.45033 11.3537 8.45032 11.3537 8.45031L11.3537 8.45025L11.3538 8.45016L11.3538 8.44993C11.3538 8.44982 11.3538 8.44968 11.3539 8.44952C11.3539 8.44946 11.3539 8.44939 11.3539 8.44932C11.354 8.44883 11.3541 8.4482 11.3543 8.44743C11.3546 8.44588 11.3552 8.44379 11.356 8.44118C11.3578 8.43597 11.3607 8.42876 11.3658 8.4199C11.3691 8.41402 11.3734 8.40743 11.3788 8.40024C11.3026 8.43603 11.2637 8.44886 11.2437 8.45169C11.2374 8.45258 11.2319 8.45265 11.2274 8.45152C11.2225 8.45032 11.2177 8.44745 11.2151 8.44191C11.2129 8.4369 11.2137 8.43221 11.2144 8.42989C11.2147 8.42859 11.2152 8.42752 11.2155 8.42677C11.2157 8.42639 11.2159 8.42606 11.216 8.42579L11.2162 8.42544L11.2163 8.4253L11.2163 8.42523L11.2163 8.42521C11.2163 8.42519 11.2163 8.42518 11.2263 8.43145L11.2163 8.42518L11.2171 8.42396L11.2599 8.3798C11.2478 8.37614 11.2329 8.36849 11.2162 8.35352L11.2032 8.34197L11.2184 8.33377C11.3891 8.24139 11.4389 8.10165 11.4464 7.98463C11.4482 7.95691 11.4476 7.93045 11.4457 7.9062C11.4348 7.97298 11.4018 8.05091 11.3171 8.10871L11.3007 8.09249C11.3449 8.01652 11.3417 7.93746 11.3111 7.86018C11.2803 7.78247 11.2219 7.70726 11.1573 7.64103C11.0927 7.57493 11.0225 7.51846 10.9687 7.47813C10.9433 7.45906 10.9216 7.44363 10.906 7.43248C10.9051 7.43184 10.9042 7.43122 10.9034 7.43061C10.8955 7.42502 10.8892 7.4205 10.8849 7.4173C10.8829 7.41574 10.881 7.41426 10.8796 7.413C10.879 7.41248 10.8779 7.41144 10.877 7.41009C10.8766 7.40958 10.8753 7.40779 10.8748 7.40515C10.8745 7.40366 10.8743 7.40134 10.8751 7.39872C10.876 7.39615 10.8775 7.39416 10.8793 7.3928L11.1964 7.14749C11.1883 7.13868 11.1732 7.12257 11.1459 7.0934L11.1177 7.06323ZM11.2179 7.16101L10.9053 7.40274C10.9085 7.40502 10.9123 7.40771 10.9166 7.41081C10.9175 7.41142 10.9183 7.41205 10.9192 7.41269C10.9349 7.42385 10.9568 7.43942 10.9825 7.45867C11.0367 7.49936 11.108 7.55664 11.1737 7.62396C11.2393 7.69115 11.3002 7.76904 11.3327 7.85108C11.3592 7.91816 11.367 7.98846 11.3427 8.05757C11.3979 8.00451 11.4186 7.94096 11.4248 7.88705C11.4285 7.85448 11.4269 7.82549 11.4244 7.80465C11.4232 7.79424 11.4217 7.7859 11.4205 7.78021C11.4199 7.77737 11.4195 7.7752 11.4191 7.77376C11.419 7.77337 11.4189 7.77304 11.4189 7.77276C11.4188 7.77252 11.4188 7.77232 11.4187 7.77217L11.4186 7.7718L11.4186 7.77174C11.4186 7.77174 11.4186 7.77173 11.4187 7.7717L11.4407 7.76417L11.4298 7.76849C11.4407 7.76417 11.4407 7.76417 11.4407 7.76417L11.4407 7.76421L11.4408 7.76429L11.4409 7.76454L11.4412 7.76547C11.4415 7.76626 11.4419 7.76742 11.4424 7.76893C11.4434 7.77193 11.4448 7.77632 11.4465 7.78194C11.4498 7.79317 11.4542 7.80936 11.4583 7.82935C11.4665 7.8693 11.4737 7.92468 11.4697 7.98622C11.462 8.10607 11.4117 8.24909 11.2452 8.34613C11.256 8.3535 11.2649 8.35662 11.2711 8.3579C11.2755 8.3588 11.2787 8.35882 11.2806 8.35869C11.2816 8.35862 11.2823 8.35851 11.2826 8.35845C11.2827 8.35842 11.2828 8.3584 11.2828 8.3584L11.2827 8.35842L11.2826 8.35845L11.2826 8.35845L11.2826 8.35848C11.2826 8.35848 11.2825 8.35848 11.2825 8.35854L11.2941 8.37851L11.2476 8.42654C11.2717 8.42116 11.3233 8.40209 11.4297 8.34894L11.4421 8.36912C11.4108 8.39522 11.3944 8.41718 11.3859 8.4321C11.3819 8.43917 11.3796 8.4447 11.3783 8.44838C11.3804 8.44908 11.3843 8.44971 11.3911 8.44841C11.4114 8.44456 11.4521 8.42478 11.5289 8.35581L11.5451 8.37306C11.4835 8.44174 11.446 8.4937 11.424 8.52799C11.4167 8.5395 11.411 8.54903 11.4068 8.55654C11.4407 8.54876 11.4785 8.53057 11.5181 8.50317C11.5665 8.46956 11.6167 8.42263 11.6638 8.36587C11.758 8.25228 11.8391 8.10038 11.8698 7.93958C11.9005 7.779 11.881 7.60998 11.7747 7.4606C11.6728 7.31728 11.49 7.19057 11.1914 7.1074C11.2065 7.12353 11.2145 7.1321 11.2186 7.13659C11.2214 7.13962 11.2229 7.14126 11.2235 7.14202C11.2236 7.14212 11.2239 7.14253 11.2242 7.14307C11.2243 7.14327 11.2249 7.14411 11.2253 7.14527C11.2255 7.14578 11.226 7.1473 11.226 7.14933C11.2261 7.15147 11.2255 7.15628 11.221 7.15945C11.2199 7.1602 11.2188 7.16069 11.2179 7.16101ZM11.3768 8.45367C11.3768 8.45369 11.3768 8.45368 11.3769 8.45363L11.3768 8.45367ZM11.3653 8.45192L11.3537 8.45031L11.3534 8.45318L11.3543 8.45589L11.3653 8.45192Z" fill="black"/>
<path d="M10.9142 7.29199C10.9986 7.35341 11.0284 7.37389 11.0383 7.40462C10.9613 7.38672 10.8919 7.39182 10.8919 7.39182C10.8919 7.39182 10.7255 7.228 10.6958 7.2152C10.6734 7.2152 10.5444 7.13073 10.5444 7.13073C10.4798 7.09745 10.4203 6.86709 10.6585 6.93363C10.9042 7.05392 10.939 7.06418 10.939 7.06418C11.0366 7.09575 11.1343 7.12733 11.2319 7.15889C11.2882 7.22374 11.3444 7.28859 11.4007 7.35343C11.4007 7.35343 11.1004 7.19984 11.0631 7.19728C11.145 7.26638 11.1922 7.36109 11.1922 7.36109C11.097 7.33293 11.0143 7.30735 10.9142 7.29199Z" fill="white"/>
<path fill-rule="evenodd" clip-rule="evenodd" d="M10.5116 7.07096C10.522 7.09511 10.5364 7.11279 10.549 7.11931L10.5496 7.11958L10.5501 7.11991L10.5438 7.13007C10.5501 7.11991 10.5501 7.11991 10.5501 7.11991L10.5515 7.12084C10.5524 7.12146 10.5538 7.12236 10.5556 7.1235C10.5591 7.1258 10.5643 7.12909 10.5705 7.13303C10.5829 7.14092 10.5996 7.15142 10.617 7.16191C10.6345 7.17243 10.6525 7.18284 10.6674 7.1906C10.6749 7.19448 10.6814 7.1976 10.6866 7.19972C10.6892 7.20078 10.6913 7.20153 10.6929 7.20199C10.6944 7.2024 10.6951 7.20248 10.6952 7.2025C10.6952 7.20251 10.6952 7.2025 10.6952 7.2025L10.6975 7.20251L10.6997 7.20343C10.7049 7.20568 10.7119 7.21052 10.7192 7.21617C10.7268 7.22207 10.736 7.22968 10.7459 7.23833C10.7659 7.25564 10.7896 7.27744 10.8123 7.29875C10.835 7.32009 10.8568 7.34101 10.8728 7.35659C10.8809 7.36439 10.8875 7.37085 10.8921 7.37536C10.8935 7.37671 10.8947 7.37788 10.8957 7.37887C10.8977 7.37878 10.9001 7.37869 10.9031 7.37861C10.911 7.37841 10.9223 7.37833 10.9361 7.37882C10.9576 7.37959 10.9851 7.38175 11.0149 7.38703C11.0103 7.38142 11.0042 7.37537 10.9961 7.36837C10.9791 7.35366 10.9545 7.33576 10.9184 7.30949C10.9147 7.3068 10.9109 7.30403 10.9069 7.30115L10.9154 7.27943C11.0064 7.2934 11.0832 7.31576 11.1671 7.34062C11.1621 7.3323 11.1558 7.32234 11.1483 7.31136C11.1266 7.27958 11.095 7.23955 11.0552 7.20593L11.027 7.18211L11.0634 7.18461C11.07 7.18507 11.0803 7.18843 11.0918 7.19276C11.1038 7.19732 11.1188 7.20362 11.1356 7.21104C11.1692 7.22588 11.2104 7.24539 11.2503 7.26477C11.2874 7.2828 11.3235 7.30076 11.3515 7.31481C11.3366 7.29752 11.3215 7.28023 11.3065 7.26294C11.2793 7.23152 11.252 7.20011 11.2248 7.16872C11.1767 7.15318 11.1286 7.13762 11.0805 7.12206C11.032 7.10637 10.9835 7.09069 10.935 7.07502L10.9349 7.07499L10.9344 7.07483C10.934 7.07469 10.9334 7.07449 10.9326 7.0742C10.9311 7.07363 10.9286 7.07271 10.925 7.07125C10.9177 7.06834 10.9055 7.06323 10.8857 7.05439C10.8463 7.03676 10.7763 7.00418 10.6539 6.9443C10.5961 6.9283 10.5586 6.93095 10.5354 6.94194C10.5129 6.95263 10.5019 6.97215 10.4989 6.99565C10.4959 7.01963 10.5013 7.0472 10.5116 7.07096ZM11.4001 7.35277L11.395 7.36355L11.4088 7.34475C11.3805 7.31213 11.3523 7.27955 11.324 7.24696C11.296 7.21472 11.2681 7.18248 11.2401 7.15021L11.2379 7.14774L11.2348 7.14675C11.1857 7.13087 11.1367 7.11501 11.0876 7.09914C11.0391 7.08344 10.9905 7.06775 10.942 7.05204L10.9418 7.05198L10.9416 7.05193C10.9414 7.05186 10.941 7.05172 10.9403 7.05149C10.9391 7.05103 10.9369 7.05021 10.9334 7.04882C10.9265 7.04606 10.9146 7.04108 10.895 7.03232C10.8558 7.01479 10.7858 6.98222 10.663 6.9221L10.6621 6.92164L10.661 6.92136C10.6003 6.9044 10.5562 6.90562 10.5257 6.92008C10.4944 6.93491 10.4796 6.96259 10.4758 6.99251C10.472 7.02197 10.4787 7.05407 10.4903 7.08078C10.5016 7.10686 10.5186 7.13026 10.538 7.14054L10.539 7.14119C10.54 7.14182 10.5414 7.14273 10.5432 7.14389C10.5468 7.14621 10.552 7.14953 10.5582 7.15351C10.5707 7.16146 10.5876 7.17207 10.6053 7.18269C10.6229 7.19329 10.6413 7.204 10.6569 7.21208C10.6646 7.21612 10.6719 7.2196 10.678 7.2221C10.6825 7.22394 10.6876 7.22574 10.6921 7.22635C10.6947 7.22777 10.6991 7.23069 10.7052 7.23544C10.7124 7.24095 10.7211 7.24823 10.7309 7.25674C10.7505 7.27375 10.774 7.2953 10.7966 7.31654C10.8192 7.33776 10.8408 7.3586 10.8569 7.37413C10.8649 7.38189 10.8715 7.38833 10.8761 7.39282C10.8784 7.39507 10.8802 7.39683 10.8814 7.39803L10.8832 7.39985C10.8832 7.39985 10.8833 7.39986 10.8913 7.39116L10.8832 7.39985L10.887 7.40353L10.8921 7.40316L10.8922 7.40315L10.8923 7.40315L10.8928 7.40311C10.8933 7.40308 10.894 7.40304 10.895 7.40299C10.897 7.40289 10.8999 7.40276 10.9037 7.40267C10.9112 7.40247 10.922 7.40239 10.9353 7.40287C10.9618 7.40381 10.9976 7.40696 11.0352 7.41569L11.0554 7.42039L11.0488 7.40015C11.0429 7.38171 11.031 7.36716 11.0111 7.34994C10.9988 7.33927 10.9828 7.32712 10.9623 7.31205C11.0338 7.32611 11.0984 7.34528 11.1695 7.36639C11.1758 7.36825 11.1821 7.37011 11.1884 7.372L11.2143 7.37967L11.202 7.35494L11.1917 7.36043C11.202 7.35494 11.202 7.35494 11.202 7.35494L11.202 7.35483L11.2019 7.35459L11.2014 7.35371C11.201 7.35296 11.2004 7.35185 11.1997 7.35044C11.1982 7.34761 11.196 7.34353 11.1931 7.33844C11.1872 7.32825 11.1786 7.31398 11.1674 7.29752C11.1528 7.2762 11.1338 7.25107 11.1108 7.22635C11.1158 7.22848 11.121 7.23075 11.1264 7.23315C11.1596 7.24783 11.2005 7.2672 11.2404 7.28654C11.2802 7.30587 11.3188 7.32512 11.3475 7.33955C11.3619 7.34676 11.3737 7.35276 11.382 7.35696C11.3862 7.35906 11.3894 7.36071 11.3916 7.36183L11.395 7.36355C11.395 7.36355 11.395 7.36355 11.4001 7.35277Z" fill="black"/>
<path fill-rule="evenodd" clip-rule="evenodd" d="M9.74803 5.92942C9.74803 5.92942 9.74802 5.92942 9.74529 5.91773C9.74255 5.90603 9.74255 5.90603 9.74255 5.90603L9.74581 5.90522C9.74794 5.9047 9.75106 5.90393 9.75504 5.90296C9.763 5.90101 9.7744 5.89825 9.7882 5.89496C9.81578 5.88839 9.85293 5.87974 9.89119 5.8714C9.92942 5.86307 9.96889 5.85502 10.0011 5.84969C10.0171 5.84703 10.0315 5.84502 10.0432 5.84401C10.049 5.8435 10.0542 5.84322 10.0587 5.84327C10.063 5.84331 10.0675 5.84363 10.0712 5.84473L10.0648 5.86786C10.0641 5.86768 10.0623 5.86736 10.0585 5.86733C10.055 5.86729 10.0505 5.86751 10.0451 5.86798C10.0343 5.86893 10.0206 5.87083 10.0048 5.87345C9.97315 5.87868 9.93412 5.88664 9.89602 5.89494C9.85795 5.90324 9.82094 5.91186 9.79345 5.91841C9.7797 5.92168 9.76834 5.92444 9.76042 5.92637C9.75646 5.92734 9.75335 5.9281 9.75124 5.92862L9.74803 5.92942Z" fill="white"/>
</g>
<defs>
<clipPath id="clip0_345_670">
<rect width="21" height="14.4375" fill="white"/>
</clipPath>
</defs>
</svg>
