<svg width="40" height="40" viewBox="0 0 40 40" fill="none" xmlns="http://www.w3.org/2000/svg">
<path d="M5 20C5 11.7157 11.7157 5 20 5V5C28.2843 5 35 11.7157 35 20V20C35 28.2843 28.2843 35 20 35V35C11.7157 35 5 28.2843 5 20V20Z" fill="black"/>
<ellipse cx="20.0002" cy="16.6667" rx="6.66667" ry="6.66667" fill="white"/>
<path fill-rule="evenodd" clip-rule="evenodd" d="M30.433 30.5196C30.4899 30.6167 30.4722 30.7398 30.391 30.8178C27.6953 33.4079 24.0335 35 19.9999 35C15.9663 35 12.3046 33.4079 9.60884 30.8179C9.52769 30.7399 9.50999 30.6169 9.56686 30.5198C11.4838 27.2465 15.4358 25 20 25C24.564 25 28.516 27.2464 30.433 30.5196Z" fill="#FF9933"/>
</svg>
