<svg width="18" height="18" viewBox="0 0 18 18" fill="none" xmlns="http://www.w3.org/2000/svg">
<path d="M9 15.75C8.11358 15.75 7.23583 15.5754 6.41689 15.2362C5.59794 14.897 4.85382 14.3998 4.22703 13.773C3.60023 13.1462 3.10303 12.4021 2.76381 11.5831C2.42459 10.7642 2.25 9.88642 2.25 9C2.25 8.11358 2.42459 7.23583 2.76381 6.41689C3.10303 5.59794 3.60023 4.85382 4.22703 4.22703C4.85383 3.60023 5.59794 3.10303 6.41689 2.76381C7.23584 2.42459 8.11358 2.25 9 2.25C9.88642 2.25 10.7642 2.42459 11.5831 2.76381C12.4021 3.10303 13.1462 3.60023 13.773 4.22703C14.3998 4.85383 14.897 5.59794 15.2362 6.41689C15.5754 7.23584 15.75 8.11358 15.75 9C15.75 9.88642 15.5754 10.7642 15.2362 11.5831C14.897 12.4021 14.3998 13.1462 13.773 13.773C13.1462 14.3998 12.4021 14.897 11.5831 15.2362C10.7642 15.5754 9.88642 15.75 9 15.75L9 15.75Z" stroke="#D9534F" stroke-width="2" stroke-linecap="round"/>
<path d="M13.5 4.5L4.5 13.5" stroke="#D9534F" stroke-width="2" stroke-linecap="round"/>
</svg>
