<svg width="36" height="36" viewBox="0 0 36 36" fill="none" xmlns="http://www.w3.org/2000/svg">
<path fill-rule="evenodd" clip-rule="evenodd" d="M7.91179 15.1896C7.50009 16.0847 7.50009 17.103 7.50009 19.1396V25.5002C7.50009 28.3287 7.50009 29.7429 8.37877 30.6216C9.20957 31.4524 10.5191 31.4976 13.0501 31.5001V24.0003C13.0501 22.5091 14.2589 21.3003 15.7501 21.3003H20.2501C21.7413 21.3003 22.9501 22.5091 22.9501 24.0003V31.5001C25.4811 31.4976 26.7907 31.4524 27.6215 30.6216C28.5002 29.7429 28.5002 28.3287 28.5002 25.5002V19.1396C28.5002 17.103 28.5002 16.0847 28.0885 15.1896C27.6768 14.2944 26.9036 13.6317 25.3573 12.3063L23.8573 11.0206C21.0623 8.62488 19.6648 7.42703 18.0001 7.42703C16.3355 7.42703 14.938 8.62488 12.143 11.0206L10.643 12.3063C9.09665 13.6317 8.32348 14.2944 7.91179 15.1896ZM20.5501 31.5003V24.0003C20.5501 23.8346 20.4158 23.7003 20.2501 23.7003H15.7501C15.5844 23.7003 15.4501 23.8346 15.4501 24.0003V31.5003H20.5501Z" fill="black"/>
</svg>
