<svg width="30" height="30" viewBox="0 0 30 30" fill="none" xmlns="http://www.w3.org/2000/svg">
<path d="M3.75 7.75C3.75 5.86438 3.75 4.92157 4.33579 4.33579C4.92157 3.75 5.86438 3.75 7.75 3.75H22.25C24.1356 3.75 25.0784 3.75 25.6642 4.33579C26.25 4.92157 26.25 5.86438 26.25 7.75V22.25C26.25 24.1356 26.25 25.0784 25.6642 25.6642C25.0784 26.25 24.1356 26.25 22.25 26.25H7.75C5.86438 26.25 4.92157 26.25 4.33579 25.6642C3.75 25.0784 3.75 24.1356 3.75 22.25V7.75Z" stroke="white" stroke-width="2"/>
<path d="M3.75 8.75H8C8.98142 8.75 9.47214 8.75 9.89443 8.96115C10.3167 9.17229 10.6111 9.56486 11.2 10.35L12.55 12.15C13.1389 12.9351 13.4333 13.3277 13.8556 13.5389C14.2779 13.75 14.7686 13.75 15.75 13.75H22.5C24.1437 13.75 24.9656 13.75 25.5188 13.296C25.6201 13.2129 25.7129 13.1201 25.796 13.0188C26.25 12.4656 26.25 11.6437 26.25 10V10" stroke="white" stroke-width="2"/>
<path d="M8.75 20H18.75" stroke="white" stroke-width="2" stroke-linecap="round"/>
</svg>
