<svg width="25" height="27" viewBox="0 0 25 27" fill="none" xmlns="http://www.w3.org/2000/svg">
<path fill-rule="evenodd" clip-rule="evenodd" d="M12.5029 0C11.9307 0.0123382 11.3742 0.189091 10.8997 0.509154C10.4421 0.81418 10.0022 1.14498 9.58212 1.49994L9.53051 1.54122L3.06862 6.76578L2.87826 6.91371C1.90399 7.56578 1.08817 8.42783 0.490745 9.43654C0.0830294 10.5347 -0.0737014 11.7102 0.0320485 12.8768V13.1164V19.2056C0.0320485 20.2274 0.0320485 21.0806 0.0916791 21.772C0.130325 22.4831 0.326148 23.1767 0.66505 23.8029C1.08024 24.5221 1.67745 25.1193 2.39663 25.5345C3.02288 25.8734 3.71649 26.0692 4.42751 26.1079C5.12244 26.1709 5.97561 26.171 6.99736 26.171H7.38037C7.74962 26.171 8.08791 26.1709 8.3723 26.1515C8.70921 26.1361 9.04126 26.0652 9.35506 25.9416C10.089 25.6338 10.6712 25.0479 10.9743 24.3121C11.0978 23.9983 11.1687 23.6662 11.1841 23.3293C11.2036 23.0449 11.2036 22.7055 11.2036 22.3374V22.3374V22.2995C11.2036 21.881 11.2048 21.6321 11.2174 21.4464C11.2199 21.387 11.2271 21.328 11.2392 21.2698C11.2827 21.1663 11.3651 21.084 11.4685 21.0404C11.5267 21.0284 11.5857 21.0211 11.6451 21.0186C11.8309 21.0049 12.0797 21.0049 12.4983 21.0049C12.9168 21.0049 13.1657 21.006 13.3515 21.0186C13.4108 21.0211 13.4699 21.0284 13.5281 21.0404C13.6315 21.084 13.7138 21.1663 13.7574 21.2698C13.7694 21.328 13.7767 21.387 13.7792 21.4464C13.793 21.6321 13.793 21.881 13.793 22.2995V22.3374C13.793 22.7055 13.793 23.0495 13.8124 23.3282C13.8278 23.6651 13.8987 23.9971 14.0223 24.3109C14.3242 25.049 14.9065 25.6371 15.6415 25.9462C15.9553 26.0697 16.2874 26.1407 16.6243 26.156C16.9087 26.1755 17.2481 26.1755 17.6162 26.1755H17.9992C19.0221 26.1755 19.8753 26.1755 20.5691 26.1125C21.2801 26.0738 21.9737 25.878 22.5999 25.5391C23.3191 25.1239 23.9163 24.5267 24.3315 23.8075C24.6704 23.1813 24.8662 22.4877 24.9049 21.7766C24.968 21.0817 24.968 20.2285 24.968 19.2068V13.1187V12.8791C25.0737 11.7125 24.917 10.537 24.5093 9.43883C23.9118 8.43013 23.096 7.56807 22.1217 6.916L21.9348 6.76578L15.4764 1.54007L15.4248 1.49879C15.005 1.14426 14.5655 0.813844 14.1083 0.509154C13.6332 0.188672 13.0758 0.0118998 12.5029 0ZM11.1533 3.54932C11.5092 3.24633 11.8809 2.9623 12.2667 2.69844C12.3343 2.65255 12.4065 2.6141 12.4823 2.58376L12.5053 2.57688L12.5282 2.58376C12.6028 2.61432 12.6739 2.65277 12.7404 2.69844C13.1262 2.9623 13.4979 3.24633 13.8538 3.54932L20.3157 8.77158C21.6689 9.86214 22.0037 10.1729 22.1838 10.5502C22.4267 11.3826 22.5015 12.255 22.4039 13.1166V19.1507C22.4039 20.2459 22.4028 20.9809 22.3512 21.5451C22.3443 21.883 22.2637 22.2153 22.115 22.5187C21.9263 22.8454 21.655 23.1167 21.3283 23.3054C21.0249 23.4541 20.6926 23.5347 20.3547 23.5416C19.7951 23.5944 19.0555 23.5944 17.9603 23.5944H17.6736C17.2551 23.5944 17.0062 23.5932 16.8205 23.5806C16.7611 23.5781 16.702 23.5708 16.6439 23.5588C16.5404 23.5152 16.4581 23.4329 16.4145 23.3295C16.4025 23.2713 16.3952 23.2122 16.3927 23.1529C16.379 22.9671 16.379 22.7183 16.379 22.2997V22.2619C16.379 21.8926 16.379 21.5543 16.3595 21.2699C16.3441 20.933 16.2732 20.601 16.1496 20.2872C15.8441 19.5494 15.2579 18.9632 14.5201 18.6576C14.2063 18.5341 13.8742 18.4632 13.5373 18.4478C13.2529 18.4283 12.9135 18.4283 12.5454 18.4283H12.4709C12.1016 18.4283 11.7633 18.4283 11.4789 18.4478C11.142 18.4632 10.81 18.5341 10.4962 18.6576C9.75836 18.9632 9.17218 19.5494 8.86666 20.2872C8.7431 20.601 8.67219 20.933 8.6568 21.2699C8.63731 21.5543 8.63731 21.8937 8.63731 22.2618V22.2619V22.2997C8.63731 22.7183 8.63616 22.9671 8.62355 23.1529C8.62106 23.2122 8.61377 23.2713 8.60176 23.3295C8.55818 23.4329 8.47586 23.5152 8.37241 23.5588C8.31423 23.5708 8.25517 23.5781 8.19581 23.5806C8.01004 23.5944 7.7612 23.5944 7.34264 23.5944H7.05595C5.96081 23.5944 5.22575 23.5932 4.66155 23.5416C4.32369 23.5347 3.99142 23.4541 3.68797 23.3054C3.36127 23.1167 3.08997 22.8454 2.9013 22.5187C2.75259 22.2153 2.67197 21.883 2.66507 21.5451C2.61232 20.9855 2.61232 20.2459 2.61232 19.1507V13.1212C2.5108 12.2587 2.58214 11.3847 2.82218 10.5502C3.00336 10.1683 3.33821 9.86214 4.69022 8.76814L11.1533 3.54932Z" fill="black"/>
</svg>
