<svg width="35" height="35" viewBox="0 0 35 35" fill="none" xmlns="http://www.w3.org/2000/svg">
<path d="M4.375 17.5C4.375 10.2513 10.2513 4.375 17.5 4.375V4.375C24.7487 4.375 30.625 10.2513 30.625 17.5V17.5C30.625 24.7487 24.7487 30.625 17.5 30.625V30.625C10.2513 30.625 4.375 24.7487 4.375 17.5V17.5Z" fill="black"/>
<ellipse cx="17.5001" cy="14.5833" rx="5.83333" ry="5.83333" fill="white"/>
<path fill-rule="evenodd" clip-rule="evenodd" d="M26.617 26.6841C26.6741 26.7811 26.6564 26.9042 26.5751 26.9821C24.2179 29.2386 21.0209 30.625 17.5 30.625C13.9792 30.625 10.7822 29.2387 8.42508 26.9822C8.34379 26.9043 8.32608 26.7812 8.38323 26.6843C10.0651 23.8313 13.5161 21.875 17.5001 21.875C21.4841 21.875 24.9351 23.8312 26.617 26.6841Z" fill="#FF9933"/>
</svg>
