<svg width="18" height="18" viewBox="0 0 18 18" fill="none" xmlns="http://www.w3.org/2000/svg">
<path fill-rule="evenodd" clip-rule="evenodd" d="M16.1893 2.47794H10.4912V1.13525L1.125 2.58088V15.2523L10.4912 16.8656V14.8754H16.1893C16.3619 14.8842 16.5309 14.8242 16.6594 14.7087C16.7879 14.5932 16.8654 14.4315 16.875 14.2589V3.09388C16.8653 2.92145 16.7877 2.75988 16.6592 2.64448C16.5307 2.52907 16.3618 2.4692 16.1893 2.47794V2.47794ZM16.2793 14.3613H10.4721L10.4625 13.2988H11.8614V12.0613H10.4518L10.4451 11.33H11.8614V10.0925H10.4344L10.4276 9.36125H11.8614V8.12375H10.4231V7.3925H11.8614V6.155H10.4231V5.42375H11.8614V4.18625H10.4231V3.06125H16.2793V14.3613Z" fill="#20744A"/>
<path d="M12.6489 4.18457H15.0806V5.42207H12.6489V4.18457ZM12.6489 6.15388H15.0806V7.39138H12.6489V6.15388ZM12.6489 8.1232H15.0806V9.3607H12.6489V8.1232ZM12.6489 10.0925H15.0806V11.33H12.6489V10.0925ZM12.6489 12.0618H15.0806V13.2993H12.6489V12.0618Z" fill="#20744A"/>
<path fill-rule="evenodd" clip-rule="evenodd" d="M3.57017 6.00373L4.7773 5.93455L5.53611 8.02086L6.43274 5.84848L7.63986 5.7793L6.17399 8.74142L7.63986 11.7109L6.36355 11.6248L5.5018 9.3613L4.63949 11.5387L3.46667 11.4352L4.82905 8.8123L3.57017 6.00373V6.00373Z" fill="white"/>
</svg>
