<svg width="30" height="30" viewBox="0 0 30 30" fill="none" xmlns="http://www.w3.org/2000/svg">
<path fill-rule="evenodd" clip-rule="evenodd" d="M18.7063 17.8187H19.6938L25.9313 24.0687L24.0688 25.9312L17.8188 19.6937V18.7062L17.4813 18.3562C16.0563 19.5812 14.2063 20.3187 12.1938 20.3187C7.70635 20.3187 4.06885 16.6812 4.06885 12.1937C4.06885 7.70623 7.70635 4.06873 12.1938 4.06873C16.6813 4.06873 20.3188 7.70623 20.3188 12.1937C20.3188 14.2062 19.5813 16.0562 18.3563 17.4812L18.7063 17.8187ZM6.56885 12.1937C6.56885 15.3062 9.08135 17.8187 12.1938 17.8187C15.3063 17.8187 17.8188 15.3062 17.8188 12.1937C17.8188 9.08123 15.3063 6.56873 12.1938 6.56873C9.08135 6.56873 6.56885 9.08123 6.56885 12.1937Z" fill="#FF9933"/>
</svg>
